<svg width="286" height="286" viewBox="0 0 286 286" fill="none" xmlns="http://www.w3.org/2000/svg">
<path d="M89.0561 136.222C80.0202 129.577 69.3777 126.516 68.9344 126.373C68.4954 126.218 68.0252 126.175 67.5655 126.247C67.1059 126.318 66.671 126.503 66.2998 126.783C65.9286 127.063 65.6325 127.431 65.4379 127.854C65.2432 128.276 65.1562 128.74 65.1844 129.205V152.15C65.1841 152.785 65.3886 153.402 65.7675 153.911C66.1464 154.419 66.6795 154.792 67.2873 154.973C73.7875 156.993 79.9504 159.969 85.5728 163.806C88.1014 165.116 90.2506 163.374 90.2506 161.426V138.593C90.2512 138.132 90.1433 137.677 89.9359 137.265C89.7284 136.853 89.4271 136.496 89.0561 136.222ZM84.3666 156.074C80.1481 153.614 75.6962 151.579 71.076 149.999V133.32C75.7544 135.061 80.2145 137.341 84.3666 140.112V156.074Z" fill="black"/>
<path d="M67.4784 68.9286C68.3936 69.1355 70.7068 69.6949 70.9558 69.6949C74.3138 69.7361 75.0052 64.742 71.7036 63.9034C70.7363 63.6488 69.7614 63.4096 68.7789 63.1859C68.0194 63.0189 67.2247 63.1592 66.5683 63.5761C65.9119 63.993 65.4471 64.6527 65.2754 65.4111C65.1036 66.1695 65.2389 66.965 65.6516 67.624C66.0644 68.2831 66.7211 68.752 67.4784 68.9286Z" fill="black"/>
<path d="M87.6808 76.2106C106.631 84.6165 120.146 99.2193 120.28 99.3657C120.86 99.8418 121.579 100.117 122.329 100.15C123.079 100.183 123.82 99.9716 124.439 99.5482C124.733 99.2929 124.972 98.9805 125.142 98.6298C125.311 98.2792 125.407 97.8978 125.425 97.5088C125.442 97.1198 125.38 96.7314 125.242 96.3672C125.104 96.003 124.894 95.6706 124.624 95.3903C124.044 94.756 110.181 79.7503 90.0689 70.8279C89.3551 70.5113 88.5448 70.4911 87.8161 70.7719C87.0875 71.0527 86.5002 71.6114 86.1835 72.3252C85.8668 73.039 85.8467 73.8494 86.1275 74.578C86.4083 75.3067 86.967 75.8939 87.6808 76.2106Z" fill="black"/>
<path d="M67.4783 90.6788C97.113 97.3922 120.089 120.95 120.332 121.172C120.597 121.456 120.916 121.684 121.271 121.842C121.626 122 122.009 122.085 122.397 122.092C122.785 122.099 123.171 122.028 123.531 121.883C123.892 121.738 124.219 121.522 124.494 121.248C125.036 120.696 125.347 119.957 125.361 119.183C125.375 118.409 125.093 117.659 124.571 117.087C123.591 116.067 100.17 92.0474 68.7796 84.9361C68.0181 84.7635 67.2192 84.9005 66.5587 85.317C65.8982 85.7335 65.4302 86.3953 65.2576 87.1568C65.0851 87.9183 65.2221 88.7172 65.6385 89.3777C66.055 90.0382 66.7168 90.5062 67.4783 90.6788Z" fill="black"/>
<path d="M68.7796 106.683C68.4025 106.598 68.0123 106.587 67.6313 106.653C67.2502 106.718 66.8857 106.858 66.5587 107.064C66.2316 107.27 65.9484 107.539 65.7252 107.854C65.5019 108.17 65.3431 108.527 65.2576 108.904C65.1722 109.281 65.1618 109.671 65.2272 110.052C65.2925 110.433 65.4323 110.798 65.6385 111.125C65.8447 111.452 66.1134 111.735 66.429 111.958C66.7447 112.181 67.1012 112.34 67.4783 112.426C97.113 119.139 120.103 142.683 120.332 142.919C120.916 143.398 121.645 143.667 122.4 143.68C123.155 143.694 123.893 143.453 124.494 142.995C124.781 142.732 125.011 142.413 125.17 142.058C125.33 141.703 125.416 141.32 125.424 140.931C125.431 140.542 125.359 140.155 125.213 139.795C125.066 139.434 124.848 139.107 124.571 138.834C123.591 137.814 100.17 113.794 68.7796 106.683Z" fill="black"/>
<path d="M103.238 143.555C102.556 143.189 101.758 143.106 101.016 143.324C100.274 143.541 99.6468 144.043 99.2711 144.719C98.8953 145.395 98.8008 146.192 99.0078 146.937C99.2149 147.682 99.7069 148.316 100.378 148.701C110.859 154.53 120.202 164.527 120.295 164.627C120.875 165.252 123.037 166.036 124.455 164.782C124.742 164.521 124.973 164.206 125.136 163.854C125.299 163.503 125.391 163.122 125.405 162.735C125.42 162.348 125.357 161.962 125.221 161.599C125.085 161.236 124.878 160.904 124.612 160.623C124.205 160.185 114.555 149.849 103.238 143.555Z" fill="black"/>
<path d="M103.237 165.304C102.555 164.938 101.757 164.855 101.015 165.072C100.273 165.29 99.646 165.791 99.2702 166.467C98.8945 167.143 98.7999 167.94 99.007 168.686C99.214 169.431 99.7061 170.065 100.377 170.45C110.858 176.279 120.202 186.275 120.294 186.375C120.875 187 123.078 187.785 124.455 186.53C124.739 186.268 124.969 185.952 125.131 185.601C125.293 185.25 125.384 184.87 125.398 184.483C125.413 184.097 125.351 183.711 125.216 183.349C125.08 182.986 124.875 182.654 124.611 182.371C124.205 181.934 114.555 171.6 103.237 165.304Z" fill="black"/>
<path d="M278.518 91.6882C274.595 89.7249 270.671 87.9963 266.763 86.4729C266.402 86.3339 266.017 86.2673 265.631 86.277C265.244 86.2867 264.863 86.3725 264.51 86.5294C264.156 86.6863 263.837 86.9114 263.57 87.1916C263.304 87.4719 263.095 87.8019 262.956 88.1629C262.817 88.5238 262.75 88.9086 262.76 89.2953C262.77 89.6819 262.856 90.0629 263.013 90.4164C263.169 90.77 263.394 91.0891 263.675 91.3557C263.955 91.6223 264.285 91.831 264.646 91.97C267.842 93.215 271.039 94.5995 274.242 96.1481V246.479C226.531 225.29 180.872 232.654 145.542 246.598V96.1953C147.349 95.3886 153.538 92.9769 157.986 91.3921C158.351 91.2618 158.687 91.0608 158.975 90.8006C159.263 90.5404 159.497 90.226 159.663 89.8754C159.829 89.5249 159.925 89.145 159.944 88.7575C159.964 88.37 159.907 87.9824 159.776 87.6169C159.646 87.2515 159.445 86.9152 159.185 86.6274C158.925 86.3396 158.61 86.1059 158.26 85.9396C157.909 85.7733 157.529 85.6777 157.142 85.6582C156.754 85.6387 156.367 85.6958 156.001 85.8261C151.917 87.2821 145.86 89.6114 143.855 90.4938C124.069 59.8749 92.5581 36.2799 37.8589 31.3649C37.4549 31.3339 37.0489 31.3869 36.6664 31.5206C36.284 31.6544 35.9334 31.8659 35.6368 32.1419C35.3402 32.4179 35.1039 32.7523 34.9431 33.1242C34.7822 33.496 34.7001 33.8972 34.702 34.3023V81.4082C29.7205 82.7903 17.3889 86.4729 7.41082 91.7278C6.94295 91.9786 6.55227 92.3522 6.28076 92.8083C6.00925 93.2645 5.86717 93.7861 5.86979 94.3169V275.882C5.8682 276.342 5.97152 276.795 6.17189 277.208C6.37226 277.622 6.66437 277.984 7.02594 278.267C7.38752 278.55 7.80899 278.747 8.25822 278.842C8.70745 278.938 9.17256 278.93 9.61807 278.818C82.4438 258.444 131.781 276.18 142.608 278.734C153.459 276.181 203.598 258.448 276.38 278.818C278.791 279.266 280.128 278.036 280.128 275.9V94.3169C280.13 93.7726 279.98 93.2385 279.696 92.7743C279.411 92.3101 279.004 91.934 278.518 91.6882ZM11.758 96.1187C19.1538 92.6249 26.8284 89.7549 34.702 87.5387V190.869C34.7015 191.613 34.9828 192.33 35.4894 192.875C35.996 193.42 36.6902 193.753 37.4324 193.807C87.4176 198.365 115.368 218.131 135.407 244.866C98.8467 232.028 59.3787 226.008 11.7538 246.481L11.758 96.1187ZM139.654 271.862C102.624 261.531 65.1324 258.842 11.758 272.121V265.824C68.9412 240.882 130.448 262.284 139.654 265.763V271.862ZM139.654 259.473C105.212 247.69 57.6299 240.821 11.758 259.417V252.977C57.7527 230.72 107.184 238.916 139.654 253.017V259.473ZM139.654 240.631C135.828 235.289 109.035 193.115 40.5902 188.15V37.4996C90.8925 42.2868 123.099 67.2117 139.654 95.0412V240.631ZM274.242 272.119C229.677 259.068 175.644 262.408 145.542 271.877V265.829C154.206 262.561 216.681 240.717 274.242 265.822V272.119ZM274.242 259.417C228.451 240.761 179.867 247.777 145.542 259.546V253.026C156.057 248.355 215.433 224.539 274.242 252.975V259.417Z" fill="black"/>
<path d="M170.427 89.2859C170.404 90.3474 170.083 115.162 189.198 135.023V144.484C189.201 146.862 190.146 149.141 191.828 150.822C193.509 152.504 195.788 153.449 198.166 153.452H225.168C227.545 153.449 229.825 152.503 231.506 150.822C233.187 149.141 234.133 146.861 234.136 144.484V135.024C253.072 115.348 252.934 90.8118 252.906 89.3212C250.609 34.6329 172.704 34.6986 170.427 89.2859ZM228.249 144.484C228.248 145.3 227.923 146.083 227.346 146.66C226.769 147.237 225.986 147.562 225.169 147.563H198.168C197.351 147.563 196.568 147.238 195.991 146.66C195.414 146.083 195.089 145.3 195.088 144.484V137.124C206.111 138.296 217.228 138.296 228.251 137.124L228.249 144.484ZM211.668 53.9994C248.091 55.9526 260.182 96.0397 229.814 131.042C227.817 131.28 225.814 131.462 223.809 131.623V121.865C223.804 120.854 224.057 119.858 224.542 118.97C225.028 118.083 225.731 117.333 226.585 116.791C230.848 114.085 237.992 107.582 237.934 94.444C237.928 93.8841 237.762 93.3376 237.456 92.8683C237.151 92.3991 236.718 92.0262 236.209 91.7933C235.7 91.5604 235.135 91.477 234.58 91.5528C234.026 91.6286 233.504 91.8606 233.076 92.2216C232.923 92.3494 229.244 95.3634 222.086 95.3634C221.305 95.3634 220.556 95.6735 220.004 96.2257C219.452 96.7778 219.142 97.5267 219.142 98.3075C219.226 103.735 229.601 100.233 231.583 99.6088C229.03 113.137 218.305 110.132 217.919 121.865V131.974C213.752 132.142 209.583 132.142 205.413 131.974V121.867C205.42 119.863 204.918 117.89 203.954 116.133C202.99 114.376 201.595 112.893 199.901 111.822C196.142 109.455 193.398 105.773 192.205 101.494C204.997 109.285 217.524 103.265 217.424 88.5246C217.424 82.4025 213.236 77.4211 208.087 77.4211C197.435 77.7575 195.42 94.6072 204.774 98.8921C197.746 100.061 190.57 92.8213 190.609 92.5833C190.218 92.1278 189.699 91.8016 189.119 91.6479C188.539 91.4942 187.926 91.5202 187.361 91.7224C186.796 91.9246 186.306 92.2936 185.956 92.7805C185.605 93.2673 185.41 93.8492 185.398 94.449C185.34 107.587 192.484 114.09 196.747 116.797C197.602 117.338 198.305 118.088 198.79 118.975C199.276 119.863 199.528 120.859 199.523 121.871V131.628C197.518 131.469 195.515 131.285 193.518 131.047C163.188 96.0859 175.207 55.9576 211.668 53.9994ZM208.089 83.3102C212.6 83.5575 212.598 93.4934 208.089 93.7407C203.576 93.4918 203.578 83.5558 208.089 83.3102Z" fill="black"/>
<path d="M225.445 164.548C229.283 164.128 228.76 158.373 224.894 158.686C216.095 159.511 207.239 159.511 198.441 158.686C197.668 158.621 196.9 158.863 196.304 159.361C195.708 159.859 195.334 160.572 195.261 161.344C195.188 162.117 195.424 162.887 195.916 163.487C196.409 164.087 197.118 164.469 197.89 164.548C207.055 165.408 216.28 165.408 225.445 164.548Z" fill="black"/>
<path d="M197.89 175.659C207.055 176.518 216.28 176.518 225.445 175.659C226.217 175.579 226.926 175.198 227.419 174.598C227.911 173.998 228.146 173.227 228.074 172.455C228.001 171.682 227.626 170.969 227.031 170.471C226.435 169.973 225.667 169.731 224.894 169.797C216.095 170.622 207.239 170.622 198.441 169.797C197.668 169.731 196.9 169.973 196.304 170.471C195.708 170.969 195.334 171.682 195.261 172.455C195.188 173.227 195.424 173.998 195.916 174.598C196.409 175.198 197.118 175.579 197.89 175.659Z" fill="black"/>
<path d="M269.44 50.6593V41.4385H278.659V32.2177H269.44V23H260.22V32.2177H251V41.4385H260.22V50.6593H269.44Z" fill="black"/>
<path d="M212.168 64.4961H222.54V73.1396H212.168V64.4961Z" fill="black"/>
<path d="M210 23H220.372V31.6435H210V23Z" fill="black"/>
<path d="M232 1H242.372V9.64353H232V1Z" fill="black"/>
<path d="M130.93 228.51H141.302V237.153H130.93V228.51Z" fill="black"/>
</svg>
