<svg width="196" height="196" viewBox="0 0 196 196" fill="none" xmlns="http://www.w3.org/2000/svg">
<path d="M128.138 116.779C128.342 116.896 128.567 116.971 128.801 117.001C129.034 117.031 129.271 117.014 129.498 116.952C129.726 116.89 129.938 116.784 130.124 116.64C130.31 116.496 130.466 116.317 130.583 116.112C134.736 108.82 136.403 100.375 135.332 92.0519C134.261 83.729 130.51 75.9809 124.645 69.9784C124.313 69.6384 123.859 69.4444 123.384 69.4389C122.909 69.4334 122.451 69.617 122.111 69.9492C121.771 70.2815 121.577 70.7351 121.571 71.2104C121.566 71.6857 121.75 72.1437 122.082 72.4837C127.402 77.9291 130.805 84.958 131.776 92.5083C132.748 100.059 131.237 107.72 127.469 114.335C127.234 114.748 127.172 115.237 127.298 115.696C127.423 116.154 127.725 116.544 128.138 116.779Z" fill="black"/>
<path d="M31.3496 180.234C45.3647 176.763 59.0386 165.867 71.9908 147.851C75.2928 143.258 78.1285 138.762 80.4326 134.823C80.8027 134.186 81.383 133.697 82.0742 133.44C82.7653 133.184 83.5241 133.175 84.2206 133.417C85.294 133.795 86.3804 134.125 87.48 134.405C85.653 138.76 83.5227 142.981 81.1048 147.038C80.8636 147.427 80.7752 147.891 80.8566 148.341C80.9381 148.791 81.1836 149.195 81.5458 149.475C81.7472 149.621 81.977 149.724 82.2205 149.777C82.464 149.83 82.7159 149.832 82.96 149.782C83.2041 149.732 83.4351 149.631 83.6383 149.487C83.8414 149.343 84.0123 149.158 84.1399 148.944C86.4904 145.006 88.5798 140.918 90.3946 136.707C90.5812 136.265 90.9052 135.895 91.3186 135.653C91.7319 135.41 92.2124 135.307 92.689 135.359C96.9219 135.835 101.204 135.612 105.365 134.698C105.393 134.692 105.423 134.685 105.449 134.677C108.1 133.929 110.633 132.812 112.974 131.36C115.675 133.647 118.752 136.13 122.163 138.69C128.47 143.423 145.543 153.603 145.543 153.603C126.09 151.98 114.018 140.944 113.906 140.836C113.564 140.511 113.107 140.335 112.636 140.344C112.164 140.354 111.715 140.55 111.387 140.888C111.058 141.227 110.876 141.681 110.881 142.153C110.885 142.625 111.075 143.076 111.41 143.408C111.903 143.888 123.737 155.174 145.211 157.172C151.199 157.749 157.097 159.042 162.776 161.025L162.791 160.983C166.793 162.371 170.879 163.501 175.026 164.367C175.148 164.393 176.847 164.57 177.143 162.974C177.235 162.509 177.141 162.026 176.88 161.63C176.62 161.234 176.214 160.956 175.75 160.857C136.293 152.72 103.114 117.305 102.784 116.948C102.461 116.599 102.012 116.393 101.537 116.375C101.062 116.356 100.599 116.528 100.251 116.851C99.9017 117.174 99.6955 117.622 99.6772 118.097C99.6589 118.572 99.8301 119.035 100.153 119.384C100.378 119.626 103.965 123.477 110.134 128.908C108.36 129.875 106.486 130.646 104.546 131.208C102.074 131.747 99.5504 132.019 97.02 132.018C92.3852 132.026 87.7958 131.106 83.5219 129.313C85.9385 124.809 87.269 121.822 87.3266 121.588C87.3829 121.359 87.3933 121.12 87.3573 120.887C87.3212 120.653 87.2394 120.429 87.1166 120.227C86.9937 120.025 86.8322 119.85 86.6413 119.711C86.4504 119.571 86.2339 119.471 86.0042 119.416C85.6944 119.347 85.3719 119.359 85.0682 119.451C84.7644 119.543 84.4897 119.712 84.2708 119.942L81.0725 123.17C60.383 144.058 50.8914 153.478 40.5495 157.944C36.5822 159.657 34.9456 154.709 35.073 152.969C35.8265 142.721 42.6865 132.143 42.7556 132.037C42.9757 131.702 43.0768 131.302 43.0427 130.902C43.0086 130.502 42.8413 130.125 42.5676 129.832C42.2938 129.538 41.9295 129.345 41.533 129.283C41.1365 129.222 40.7306 129.295 40.3806 129.491C39.5251 129.97 19.3884 141.481 14.3852 163.24C12.9942 169.287 13.8122 174.026 17.0716 177.056C22.4708 182.074 30.1217 180.538 31.3496 180.234ZM17.8809 164.044C20.8475 151.14 29.8571 141.935 36.0202 136.945C34.0371 141.194 31.9272 146.922 31.5012 152.706C31.2798 155.717 32.4403 158.998 34.8303 160.719C36.8572 162.178 39.6 162.23 41.9365 161.251C52.0714 157.006 60.9859 148.502 78.6248 130.735C70.3323 145.408 52.9171 171.204 30.4895 176.756C27.7242 177.438 22.54 177.404 19.5867 174.498C17.3621 172.312 16.7879 168.794 17.8809 164.044Z" fill="black"/>
<path d="M169.165 154.779C170.21 155.113 171.3 155.284 172.398 155.286C174.308 155.269 176.177 154.723 177.796 153.709C179.415 152.695 180.722 151.253 181.571 149.541C182.421 147.83 182.78 145.917 182.609 144.014C182.438 142.111 181.743 140.293 180.601 138.761C171.416 126.463 159.888 116.103 146.682 108.278C146.314 108.061 145.881 107.982 145.46 108.055C145.04 108.129 144.659 108.35 144.387 108.679C144.115 109.009 143.969 109.424 143.977 109.851C143.984 110.278 144.144 110.689 144.427 111.009C149.354 116.727 153.775 122.862 157.64 129.344C157.906 129.804 158.025 130.333 157.982 130.862C157.939 131.391 157.735 131.894 157.398 132.304C157.061 132.714 156.607 133.011 156.096 133.156C155.586 133.3 155.043 133.286 154.541 133.113C145.264 129.93 129.738 124.602 111.762 113.174C111.397 112.941 110.96 112.847 110.532 112.911C110.104 112.974 109.713 113.191 109.432 113.52C109.151 113.849 108.999 114.269 109.003 114.702C109.007 115.134 109.168 115.551 109.456 115.875C109.702 116.152 134.443 143.772 169.165 154.779ZM153.378 136.505C154.57 136.914 155.86 136.95 157.073 136.606C158.286 136.262 159.366 135.556 160.167 134.582C160.968 133.608 161.452 132.413 161.555 131.156C161.658 129.899 161.374 128.641 160.742 127.55C158.721 124.092 156.522 120.741 154.154 117.511C163.121 124.109 171.066 131.994 177.731 140.912C178.611 142.038 179.097 143.421 179.116 144.85C179.135 146.279 178.686 147.675 177.837 148.824C177.022 150.018 175.839 150.912 174.468 151.37C173.097 151.828 171.614 151.825 170.245 151.36C149.869 144.902 133.003 132.538 122.788 123.696C135.516 130.375 146.258 134.061 153.378 136.504V136.505Z" fill="black"/>
<path d="M56.569 20.7039C53.848 19.7435 51.028 21.4274 49.8744 23.6099C48.8368 25.5699 49.2542 27.6389 50.9374 28.876C64.4315 38.7878 78.9026 56.316 79.0473 56.4935C79.3079 56.811 79.6697 57.0294 80.0721 57.112C80.4744 57.1947 80.893 57.1366 81.2577 56.9475C81.6223 56.7584 81.911 56.4498 82.0753 56.0733C82.2396 55.6969 82.2696 55.2754 82.1602 54.8794C81.8438 53.7392 74.2418 26.9379 56.569 20.7039ZM53.78 26.5222C53.5169 26.3303 53.3275 26.0538 53.2436 25.7391C53.1596 25.4244 53.1862 25.0904 53.3188 24.7928C53.5979 24.1916 54.1761 23.6699 55.3763 24.0826C65.193 27.4613 71.7163 38.6702 75.3221 46.7806C69.9051 40.8441 61.8103 32.5556 53.78 26.5222Z" fill="black"/>
<path d="M47.1304 95.2617C49.6766 96.4245 52.5538 95.0813 53.4606 93.6793C54.0869 92.7067 54.3396 91.54 54.172 90.3954C54.0043 89.2507 53.4276 88.2056 52.5486 87.4534C38.903 75.8341 28.53 61.499 22.2314 51.5191C21.6703 50.6337 20.8369 49.9543 19.8566 49.583C18.8763 49.2117 17.802 49.1685 16.795 49.46C15.7881 49.7514 14.9029 50.3618 14.2725 51.1993C13.6421 52.0369 13.3005 53.0563 13.299 54.1046C13.2799 58.555 14.6193 62.9053 17.1383 66.5743C29.2846 84.2045 41.9623 92.9011 47.1304 95.2617ZM17.788 52.8958C18.0495 52.8442 18.3202 52.8671 18.5693 52.9619C18.8184 53.0567 19.0358 53.2195 19.1969 53.4319C25.6286 63.6227 36.2328 78.2703 50.2225 90.1801C50.4478 90.3725 50.5934 90.6417 50.631 90.9355C50.6686 91.2293 50.5955 91.5266 50.4259 91.7694C50.2563 92.0122 50.0024 92.1833 49.7136 92.2491C49.4249 92.315 49.1219 92.271 48.8638 92.1257C44.1148 89.4959 31.8043 81.544 20.087 64.5405C17.9813 61.4697 16.8628 57.8296 16.8806 54.1063C16.8598 53.8285 16.9406 53.5525 17.108 53.3298C17.2755 53.1071 17.5182 52.9529 17.7909 52.8958H17.788Z" fill="black"/>
<path d="M87.9301 111.279C88.3169 111.555 88.7976 111.667 89.2665 111.588C89.7354 111.51 90.154 111.249 90.4302 110.862C90.7065 110.475 90.8178 109.995 90.7396 109.526C90.6615 109.057 90.4003 108.638 90.0135 108.362C76.963 99.1402 64.8155 88.7027 53.7339 77.1894C53.5716 77.0189 53.3774 76.8819 53.1622 76.7864C52.9471 76.691 52.7152 76.6388 52.4799 76.6329C52.2446 76.627 52.0104 76.6675 51.7907 76.7521C51.5711 76.8367 51.3702 76.9638 51.1997 77.126C51.0291 77.2883 50.8922 77.4825 50.7967 77.6976C50.7012 77.9128 50.649 78.1447 50.6431 78.38C50.6373 78.6153 50.6778 78.8495 50.7624 79.0691C50.847 79.2888 50.974 79.4896 51.1363 79.6602C53.7927 82.4526 56.5672 85.2178 59.4599 87.9556C58.7533 90.9106 58.3961 93.9384 58.3958 96.9768C58.3758 102.214 59.4305 107.399 61.4946 112.213C63.5587 117.026 66.5884 121.364 70.3962 124.96C70.7431 125.271 71.1975 125.435 71.6631 125.416C72.1288 125.398 72.5689 125.199 72.8903 124.862C73.2118 124.524 73.3891 124.075 73.3849 123.609C73.3806 123.143 73.195 122.697 72.8675 122.366C69.4129 119.104 66.6642 115.168 64.7916 110.801C62.9189 106.435 61.9621 101.73 61.9803 96.9791C61.9811 94.9091 62.1637 92.8431 62.5262 90.8051C70.5772 98.1315 79.0604 104.968 87.9301 111.279Z" fill="black"/>
<path d="M18.6195 32.0938C23.44 43.414 30.4245 54.8765 39.3794 66.1632C39.5257 66.3477 39.7069 66.5014 39.9126 66.6158C40.1183 66.7302 40.3446 66.803 40.5784 66.8299C40.8123 66.8569 41.0491 66.8375 41.2755 66.7729C41.5019 66.7083 41.7133 66.5998 41.8977 66.4535C42.0821 66.3072 42.2359 66.126 42.3503 65.9203C42.4647 65.7145 42.5374 65.4883 42.5644 65.2545C42.5913 65.0206 42.572 64.7837 42.5074 64.5574C42.4428 64.331 42.3342 64.1196 42.1879 63.9352C33.4348 52.9004 26.6117 41.7145 21.9181 30.6895C21.485 29.7264 21.3994 28.6428 21.676 27.6236C21.9526 26.6044 22.5742 25.7127 23.4348 25.1007C24.2539 24.4534 25.2748 24.1152 26.3184 24.1455C27.362 24.1757 28.3616 24.5725 29.1418 25.2661C29.9933 25.9786 30.4562 26.4277 30.4677 26.4363C30.8077 26.7687 31.2657 26.9523 31.7411 26.9469C32.2164 26.9415 32.6702 26.7475 33.0025 26.4075C33.3348 26.0676 33.5184 25.6095 33.513 25.1342C33.5076 24.6588 33.3136 24.2051 32.9736 23.8728C32.9517 23.8509 32.4191 23.3321 31.4454 22.5169C30.024 21.3347 28.246 20.6654 26.3978 20.6169C24.5496 20.5684 22.7389 21.1436 21.2575 22.2498C19.7761 23.3559 18.7103 24.9286 18.2317 26.7144C17.7531 28.5002 17.8897 30.3951 18.6195 32.0938Z" fill="black"/>
<path d="M87.302 46.8227C87.59 46.8221 87.8737 46.7523 88.129 46.619C88.3844 46.4858 88.6039 46.293 88.7691 46.057C88.9342 45.8211 89.0401 45.5488 89.0779 45.2632C89.1156 44.9777 89.084 44.6873 88.9859 44.4165C84.1545 31.1438 74.3677 20.961 73.9532 20.5339C73.6209 20.1989 73.1699 20.0085 72.6981 20.004C72.2263 19.9995 71.7718 20.1812 71.4331 20.5097C71.0944 20.8382 70.8989 21.287 70.8891 21.7587C70.8792 22.2305 71.0558 22.6871 71.3805 23.0294C71.4762 23.1286 81.0554 33.1096 85.6193 45.6426C85.745 45.9881 85.9739 46.2865 86.2748 46.4976C86.5758 46.7087 86.9344 46.8221 87.302 46.8227Z" fill="black"/>
<path d="M119.315 25.9204C111.439 33.0881 104.12 40.8437 97.4191 49.1205C97.1251 49.494 96.9915 49.969 97.0477 50.441C97.104 50.913 97.3454 51.3434 97.7189 51.6374C98.0924 51.9314 98.5674 52.065 99.0394 52.0088C99.5114 51.9525 99.9417 51.7111 100.236 51.3376C106.807 43.2237 113.985 35.6203 121.707 28.593C121.885 28.4366 122.03 28.2466 122.134 28.0339C122.237 27.8211 122.298 27.59 122.312 27.3537C122.326 27.1174 122.293 26.8806 122.215 26.6571C122.137 26.4336 122.016 26.2277 121.858 26.0514C121.7 25.8751 121.509 25.7318 121.295 25.6298C121.081 25.5279 120.85 25.4693 120.613 25.4573C120.377 25.4454 120.14 25.4805 119.918 25.5605C119.695 25.6404 119.49 25.7638 119.315 25.9233V25.9204Z" fill="black"/>
<path d="M103.716 74.5532C103.546 74.7186 103.411 74.9161 103.318 75.1342C103.225 75.3522 103.176 75.5866 103.174 75.8236C103.173 76.0607 103.218 76.2958 103.307 76.5152C103.397 76.7347 103.529 76.9341 103.697 77.1021C103.864 77.27 104.063 77.4031 104.282 77.4937C104.501 77.5842 104.736 77.6304 104.973 77.6295C105.21 77.6286 105.445 77.5807 105.663 77.4885C105.882 77.3964 106.08 77.2618 106.246 77.0926C106.402 76.9369 122.07 61.4005 136.909 52.5142C137.077 52.4046 137.277 52.3563 137.477 52.3773C137.676 52.3983 137.862 52.4873 138.004 52.6295C138.154 52.7586 138.255 52.9354 138.29 53.1302C138.325 53.3249 138.291 53.5258 138.195 53.6988C137.075 56.0183 135.709 58.2107 134.12 60.2383C133.813 60.592 133.65 61.0485 133.664 61.517C133.678 61.9854 133.869 62.4312 134.197 62.7656C134.375 62.934 134.585 63.0643 134.815 63.1485C135.044 63.2326 135.289 63.2687 135.533 63.2547C135.778 63.2406 136.017 63.1767 136.235 63.0668C136.454 62.9569 136.648 62.8034 136.805 62.6157C138.567 60.4037 140.08 58.0053 141.319 55.4634C141.778 54.59 141.945 53.5925 141.795 52.6173C141.646 51.6422 141.188 50.7405 140.489 50.0446C139.779 49.3593 138.863 48.928 137.883 48.8181C136.902 48.7082 135.913 48.9258 135.07 49.437C128.84 53.2831 122.903 57.5854 117.308 62.3084C116.942 62.6119 116.494 62.801 116.022 62.8523C115.549 62.9035 115.071 62.8146 114.648 62.5967C113.754 62.1378 112.842 61.715 111.914 61.3284C127.994 49.2058 138.884 41.5941 148.828 38.0575C149.626 37.7733 150.719 37.5571 151.385 38.1439C152.156 38.8224 152.417 40.4642 152.033 42.23C149.871 52.1833 145.676 60.3006 141.21 68.434C141.025 68.7578 140.96 69.1365 141.026 69.5034C141.093 69.8704 141.286 70.2023 141.573 70.4407C141.898 70.7083 142.297 70.8706 142.717 70.9061C143.136 70.9416 143.557 70.8487 143.922 70.6396C159.396 60.1934 169.291 43.1506 172.169 34.2441C174.971 25.5677 173.057 20.957 170.959 18.6166C168.034 15.3543 163.565 14.8978 160.359 15.5613C139.009 19.9632 116.976 41.8847 103.878 57.1507C103.461 57.6322 102.935 58.0068 102.344 58.2431C101.753 58.4794 101.114 58.5706 100.48 58.5089C99.3332 58.4051 98.178 58.351 97.025 58.351C91.9165 58.3582 86.8599 59.3761 82.1465 61.3462C77.4331 63.3162 73.1562 66.1994 69.562 69.8296C63.833 62.3355 59.4818 55.8531 56.5868 51.2875C56.5081 51.1824 56.4715 51.0517 56.484 50.9211C56.4964 50.7904 56.5571 50.6691 56.6542 50.5807C56.7384 50.4795 56.8567 50.4127 56.9868 50.3928C57.117 50.373 57.2498 50.4015 57.3604 50.4729C61.3085 52.6172 65.0665 55.0945 68.5935 57.8777C68.7816 58.0357 69.0002 58.1534 69.2357 58.2235C69.4712 58.2936 69.7185 58.3145 69.9625 58.2851C70.2064 58.2556 70.4417 58.1764 70.6537 58.0522C70.8657 57.9281 71.05 57.7618 71.1951 57.5635C71.4121 57.2541 71.5285 56.8853 71.5285 56.5074C71.5285 56.1295 71.4121 55.7607 71.1951 55.4513C63.392 43.9127 52.3116 35.6052 44.3886 30.6648C43.0291 29.8186 41.4339 29.431 39.8377 29.5593C38.2414 29.6875 36.7285 30.3248 35.5216 31.3772C34.3146 32.4296 33.4773 33.8417 33.133 35.4056C32.7886 36.9695 32.9553 38.6027 33.6086 40.0647C43.7119 62.6797 60.1897 79.0341 72.2351 88.7696C85.2789 99.3144 95.7977 104.454 96.2393 104.668C96.4584 104.774 96.6969 104.835 96.9402 104.846C97.1834 104.856 97.4264 104.818 97.6542 104.732C97.882 104.646 98.0899 104.514 98.2651 104.345C98.4404 104.176 98.5795 103.973 98.6737 103.749C98.8118 103.399 98.8399 103.015 98.7542 102.649C98.6685 102.282 98.4731 101.951 98.1941 101.699C89.2637 93.2556 80.9374 84.1955 73.2767 74.5855C72.8542 74.0561 72.65 73.3852 72.7057 72.7101C72.7614 72.0351 73.0729 71.4068 73.5765 70.9538C80.0123 65.1612 88.3611 61.9503 97.0198 61.9378C97.9422 61.9378 98.8645 61.9741 99.7817 62.0461C94.9082 68.0305 92.0172 72.158 91.963 72.2912C91.8149 72.655 91.7904 73.0574 91.8932 73.4365C91.9961 73.8155 92.2207 74.1503 92.5324 74.3893C92.8441 74.6284 93.2257 74.7583 93.6185 74.7593C94.0113 74.7603 94.3936 74.6322 94.7065 74.3947C97.0654 72.6042 99.3363 70.8777 101.519 69.2151C103.963 67.3554 106.295 65.5834 108.535 63.8839C110.112 64.4335 111.648 65.0955 113.131 65.8647C107.714 70.5877 104.027 74.2437 103.716 74.5532ZM36.8836 38.6022C36.5262 37.8438 36.4307 36.9882 36.6121 36.1696C36.7934 35.3511 37.2413 34.6158 37.8855 34.0792C38.5909 33.4541 39.4973 33.1029 40.4398 33.0894C41.1677 33.0964 41.8786 33.3101 42.4897 33.7057C49.1321 37.8023 55.2534 42.6892 60.7195 48.2593C60.1983 47.9564 59.6588 47.649 59.1007 47.3369C58.2914 46.8828 57.3535 46.7121 56.4361 46.8519C55.5186 46.9917 54.6742 47.4341 54.0369 48.1087C53.3997 48.7834 53.0061 49.6516 52.9187 50.5755C52.8313 51.4995 53.0551 52.4261 53.5545 53.2083C62.8721 67.7843 73.5431 81.4495 85.4258 94.0224C71.5047 84.6161 49.231 66.2394 36.8836 38.6022ZM116.563 48.574C132.812 31.9279 148.206 21.7255 161.081 19.0714C161.686 18.9488 162.302 18.8876 162.919 18.8887C163.913 18.8479 164.903 19.0157 165.828 19.3812C166.753 19.7467 167.591 20.3017 168.288 21.0107C170.396 23.3632 170.558 27.5588 168.754 33.1436C166.448 40.2867 159.358 52.9679 148.295 62.7206C151.046 57.2026 153.908 50.4781 155.534 42.9921C156.216 39.8543 155.549 37.036 153.751 35.4535C152.858 34.669 150.875 33.5247 147.625 34.6811C135.923 38.8426 123.345 48.1215 103.41 63.274C106.936 58.9926 111.432 53.8332 116.563 48.574Z" fill="black"/>
<path d="M179.543 35.7781C179.094 35.622 178.602 35.6503 178.174 35.8567C177.746 36.0631 177.417 36.4308 177.26 36.8791C177.195 37.0636 170.613 55.5124 153.664 71.6668C153.489 71.8282 153.348 72.0226 153.25 72.2388C153.151 72.4551 153.096 72.6888 153.089 72.9264C153.081 73.164 153.121 73.4007 153.206 73.6228C153.291 73.8449 153.419 74.0478 153.583 74.2199C153.747 74.3919 153.944 74.5297 154.161 74.625C154.379 74.7203 154.614 74.7714 154.851 74.7752C155.089 74.779 155.325 74.7355 155.546 74.6473C155.766 74.559 155.967 74.4277 156.137 74.261C173.743 57.4811 180.371 38.8443 180.644 38.0586C180.801 37.6101 180.772 37.1179 180.566 36.6902C180.359 36.2626 179.991 35.9345 179.543 35.7781Z" fill="black"/>
<path d="M171.243 63.2337C171.128 63.3956 159.705 79.5478 144.761 91.0559C144.385 91.3459 144.139 91.7737 144.077 92.2451C144.016 92.7165 144.145 93.1929 144.435 93.5696C144.725 93.9462 145.153 94.1922 145.624 94.2534C146.095 94.3147 146.572 94.1862 146.948 93.8961C162.34 82.0445 173.701 65.9713 174.177 65.2934C174.45 64.9044 174.557 64.4228 174.476 63.9545C174.394 63.4863 174.129 63.0698 173.74 62.7967C173.351 62.5236 172.869 62.4161 172.401 62.4981C171.933 62.58 171.516 62.8446 171.243 63.2337Z" fill="black"/>
<path d="M134.449 162.986C134.226 162.906 133.99 162.871 133.754 162.882C133.517 162.894 133.286 162.952 133.072 163.054C132.859 163.156 132.667 163.299 132.509 163.474C132.351 163.65 132.229 163.856 132.151 164.079C132.073 164.302 132.039 164.539 132.053 164.775C132.066 165.011 132.126 165.242 132.23 165.455C132.333 165.668 132.477 165.858 132.654 166.015C132.832 166.172 133.038 166.292 133.262 166.368C138.689 168.274 145.854 170.605 150.547 171.407C150.954 171.431 151.356 171.305 151.677 171.053C151.998 170.801 152.215 170.44 152.287 170.038C152.343 169.809 152.353 169.572 152.317 169.339C152.281 169.107 152.2 168.884 152.077 168.682C151.955 168.481 151.794 168.306 151.604 168.167C151.414 168.029 151.199 167.928 150.97 167.873C145.324 166.497 139.766 164.853 134.449 162.986Z" fill="black"/>
<path d="M115.102 158.504C115.505 158.504 115.896 158.369 116.213 158.119C116.529 157.87 116.752 157.521 116.846 157.129C116.94 156.738 116.899 156.326 116.731 155.96C116.562 155.594 116.275 155.296 115.916 155.113C106.058 150.104 100.889 145.941 100.791 145.862C100.61 145.709 100.399 145.594 100.173 145.524C99.9463 145.453 99.708 145.428 99.4717 145.45C99.2354 145.472 99.0059 145.541 98.7964 145.653C98.587 145.764 98.4018 145.916 98.2515 146.1C98.1013 146.284 97.9891 146.495 97.9213 146.723C97.8535 146.95 97.8316 147.189 97.8568 147.425C97.882 147.661 97.9538 147.889 98.0681 148.097C98.1823 148.305 98.3367 148.489 98.5224 148.637C98.7414 148.816 104.005 153.083 114.292 158.309C114.543 158.437 114.821 158.504 115.102 158.504Z" fill="black"/>
<path d="M55.6194 180.699C55.9989 180.699 56.3685 180.578 56.6743 180.353C56.9828 180.129 64.3178 174.729 72.8196 164.722C72.9755 164.543 73.0943 164.335 73.1692 164.11C73.2441 163.885 73.2736 163.647 73.2558 163.41C73.2381 163.174 73.1736 162.943 73.066 162.731C72.9584 162.52 72.8099 162.332 72.6291 162.178C72.4483 162.025 72.2388 161.909 72.0127 161.836C71.7866 161.764 71.5485 161.738 71.3122 161.759C71.0758 161.779 70.8459 161.847 70.6358 161.957C70.4257 162.067 70.2396 162.218 70.0882 162.401C61.8804 172.061 54.6325 177.406 54.5598 177.459C54.2545 177.682 54.0276 177.996 53.9116 178.356C53.7956 178.716 53.7964 179.104 53.914 179.463C54.0316 179.823 54.2599 180.136 54.5662 180.357C54.8725 180.579 55.2412 180.699 55.6194 180.698V180.699Z" fill="black"/>
<path d="M45.5286 145.378C46.2255 145.941 47.0838 146.266 47.9784 146.306C48.873 146.347 49.7571 146.1 50.5019 145.603C59.1259 139.965 67.4501 130.5 67.8 130.1C68.1096 129.741 68.2649 129.275 68.232 128.803C68.1991 128.331 67.9807 127.891 67.6244 127.579C67.2682 127.267 66.803 127.109 66.3306 127.139C65.8581 127.169 65.4167 127.385 65.1027 127.739C65.0197 127.834 56.7439 137.239 48.5407 142.603C48.4248 142.687 48.2834 142.73 48.14 142.724C47.9966 142.717 47.8597 142.661 47.7521 142.566C47.6316 142.48 47.5439 142.355 47.5032 142.212C47.4625 142.069 47.4712 141.917 47.5278 141.779C47.8236 140.959 48.1683 140.093 48.5511 139.204C48.7344 138.769 48.7382 138.278 48.5616 137.84C48.3851 137.401 48.0425 137.05 47.6085 136.863C47.1744 136.676 46.6841 136.668 46.2441 136.841C45.8042 137.014 45.4503 137.353 45.2594 137.786C44.8478 138.74 44.4766 139.674 44.1561 140.563C43.8419 141.407 43.8056 142.329 44.0525 143.196C44.2994 144.062 44.8166 144.827 45.5286 145.378Z" fill="black"/>
<path d="M51.3639 104.692C28.4117 121.833 15.7628 141.449 15.2353 142.278C14.9797 142.678 14.8937 143.164 14.9964 143.628C15.099 144.093 15.3819 144.497 15.7827 144.753C16.1835 145.008 16.6694 145.094 17.1336 144.992C17.5977 144.889 18.0021 144.606 18.2578 144.205C18.3834 144.008 31.0767 124.317 53.5095 107.565C53.8904 107.281 54.1426 106.857 54.2107 106.386C54.2788 105.916 54.1572 105.437 53.8727 105.057C53.5882 104.676 53.164 104.424 52.6935 104.355C52.223 104.287 51.7447 104.409 51.3639 104.693V104.692Z" fill="black"/>
<path d="M103.03 29.0444V23.029H109.044V17.0135H103.03V11H97.0148V17.0135H91V23.029H97.0148V29.0444H103.03Z" fill="black"/>
<path d="M75 153H81.7667V158.639H75V153Z" fill="black"/>
<path d="M181 55H187.767V60.6389H181V55Z" fill="black"/>
<path d="M177 72H183.767V77.6389H177V72Z" fill="black"/>
<path d="M117 171H123.767V176.639H117V171Z" fill="black"/>
<path d="M18 110H24.7667V115.639H18V110Z" fill="black"/>
</svg>
