<svg width="196" height="196" viewBox="0 0 196 196" fill="none" xmlns="http://www.w3.org/2000/svg">
<path d="M75.1195 68.3187H85.9474L79.8045 134.755C79.3468 134.647 78.832 134.524 78.274 134.383C77.7933 134.27 77.2873 134.35 76.8654 134.607C76.4434 134.863 76.1394 135.276 76.0191 135.755C75.8988 136.233 75.9719 136.741 76.2225 137.166C76.4732 137.592 76.8813 137.901 77.3585 138.028C79.3618 138.531 80.8231 138.835 81.0704 138.886C85.1674 139.949 91.3316 140.557 97.9996 140.557C104.668 140.557 110.831 139.947 114.929 138.886C115.177 138.835 116.638 138.532 118.64 138.029C118.883 137.972 119.111 137.867 119.313 137.72C119.514 137.574 119.684 137.389 119.814 137.176C119.943 136.964 120.029 136.727 120.066 136.481C120.103 136.235 120.091 135.984 120.031 135.742C119.97 135.501 119.862 135.274 119.713 135.074C119.564 134.875 119.376 134.707 119.162 134.581C118.947 134.454 118.71 134.372 118.463 134.338C118.216 134.304 117.965 134.32 117.725 134.384C117.167 134.524 116.652 134.648 116.195 134.755L110.052 68.3187H120.88C121.378 68.3185 121.856 68.1205 122.208 67.7681C122.561 67.4157 122.759 66.9377 122.759 66.4394V61.8518C122.756 59.717 121.907 57.6703 120.398 56.1608C118.888 54.6512 116.841 53.8021 114.706 53.7997H107.091L104.928 28.7399C106.485 27.3386 107.581 25.498 108.071 23.461C108.56 21.4239 108.421 19.2863 107.67 17.3303C106.92 15.3743 105.594 13.6918 103.867 12.505C102.141 11.3183 100.095 10.6829 97.9999 10.6829C95.9049 10.6829 93.8591 11.3183 92.1326 12.505C90.4062 13.6918 89.0802 15.3743 88.3298 17.3303C87.5793 19.2863 87.4397 21.4239 87.9293 23.461C88.4189 25.498 89.5148 27.3386 91.0722 28.7399L88.9087 53.7991H81.2929C79.1581 53.8015 77.1114 54.6507 75.6017 56.1602C74.0921 57.6697 73.2428 59.7164 73.2402 61.8512V66.4388C73.2402 66.9373 73.4382 67.4153 73.7906 67.7679C74.1431 68.1204 74.6211 68.3185 75.1195 68.3187ZM112.497 135.593C107.715 136.459 102.86 136.864 97.9996 136.803C93.1393 136.864 88.2843 136.459 83.5014 135.593L89.7221 68.3187H96.1209V129.903C96.1209 130.401 96.3189 130.879 96.6714 131.232C97.0238 131.584 97.5018 131.782 98.0002 131.782C98.4986 131.782 98.9766 131.584 99.3291 131.232C99.6815 130.879 99.8795 130.401 99.8795 129.903V68.3187H106.278L112.497 135.593ZM97.9996 14.4636C99.3049 14.4635 100.581 14.8505 101.666 15.5756C102.752 16.3006 103.598 17.3313 104.097 18.5372C104.597 19.7431 104.727 21.07 104.473 22.3502C104.218 23.6304 103.59 24.8064 102.667 25.7294C101.744 26.6524 100.568 27.281 99.2879 27.5357C98.0077 27.7903 96.6808 27.6597 95.4749 27.1602C94.2689 26.6607 93.2382 25.8149 92.513 24.7296C91.7879 23.6443 91.4008 22.3683 91.4008 21.0631C91.4028 19.3135 92.0986 17.6361 93.3357 16.399C94.5728 15.1618 96.2501 14.4658 97.9996 14.4636ZM103.319 53.7997H92.6805L94.6613 30.8562C96.8236 31.6063 99.1756 31.6063 101.338 30.8562L103.319 53.7997ZM76.9988 61.8518C77.0002 60.7134 77.4531 59.6221 78.2581 58.8171C79.0631 58.0122 80.1545 57.5595 81.2929 57.5583H114.706C115.845 57.5593 116.936 58.012 117.741 58.817C118.546 59.6219 118.999 60.7134 119 61.8518V64.5612H76.9988V61.8518Z" fill="white"/>
<path d="M33.6178 90.8731C34.2577 91.0572 34.9201 91.1509 35.5859 91.1515C37.1392 91.1496 38.648 90.6331 39.8766 89.6827C40.7499 89.0208 41.4542 88.1618 41.9322 87.1757C42.4102 86.1897 42.6483 85.1046 42.6269 84.009C42.5116 76.7547 38.956 71.6726 32.6177 69.6993C30.891 69.1543 29.0211 69.2921 27.393 70.0843C25.7649 70.8765 24.5024 72.2628 23.8657 73.9577C22.9606 76.3962 22.4747 80.228 25.2953 84.6322C27.1895 87.6819 30.1597 89.9091 33.6178 90.8731ZM27.3862 75.2651C27.6235 74.6354 28.048 74.0934 28.6026 73.7121C29.1572 73.3308 29.8152 73.1284 30.4882 73.1322C30.8313 73.1323 31.1724 73.1844 31.4999 73.2867C36.2996 74.7809 38.779 78.4081 38.8689 84.0667C38.8784 84.5751 38.7675 85.0785 38.5451 85.5358C38.3228 85.993 37.9954 86.3912 37.5897 86.6977C37.1787 87.0165 36.698 87.2335 36.187 87.3309C35.676 87.4282 35.1492 87.4033 34.6497 87.258C32.0748 86.537 29.8643 84.8758 28.4555 82.603C26.8633 80.1161 26.503 77.6465 27.3862 75.2651Z" fill="white"/>
<path d="M17.3139 170.293C27.3249 183.123 47.1688 185.295 59.466 185.295C62.9805 185.311 66.493 185.124 69.9861 184.736C73.3255 184.491 76.6407 183.985 79.9014 183.224C80.865 182.996 81.7248 182.453 82.3441 181.68C82.9634 180.908 83.3067 179.95 83.3193 178.96C83.3319 177.97 83.0131 177.004 82.4136 176.216C81.8141 175.428 80.9684 174.863 80.0109 174.611C64.4704 170.487 54.3579 164.397 49.7099 161.133C48.2395 160.087 46.4409 159.607 44.6449 159.782C42.8488 159.956 41.1762 160.773 39.9346 162.083C39.447 162.592 38.9149 163.12 38.3522 163.652C37.571 164.381 36.5657 164.823 35.5006 164.906C34.4356 164.989 33.3738 164.709 32.489 164.11C28.7978 161.529 25.6809 158.212 23.3346 154.368C22.8055 153.52 22.0385 152.846 21.1292 152.43C20.2199 152.015 19.2085 151.876 18.2208 152.031C17.2332 152.186 16.313 152.628 15.5749 153.303C14.8367 153.977 14.3132 154.853 14.0696 155.823C13.6586 157.517 13.5198 159.266 13.6585 161.004C13.925 164.395 15.1978 167.63 17.3139 170.293ZM17.714 156.741C17.7761 156.483 17.914 156.251 18.1098 156.073C18.3056 155.895 18.5503 155.78 18.8122 155.743C18.8858 155.732 18.9602 155.727 19.0347 155.727C19.2576 155.722 19.4777 155.778 19.672 155.887C19.8663 155.996 20.0278 156.156 20.1398 156.349C22.765 160.64 26.2508 164.341 30.3773 167.219C31.9724 168.295 33.885 168.797 35.8028 168.646C37.7206 168.494 39.5301 167.696 40.936 166.383C41.5436 165.806 42.1206 165.235 42.6516 164.68C43.2742 164.024 44.113 163.615 45.0134 163.529C45.9138 163.442 46.8152 163.683 47.5516 164.209C53.4771 168.371 63.7504 174.185 79.0499 178.244C79.2005 178.272 79.3352 178.355 79.4283 178.477C79.5215 178.599 79.5665 178.751 79.5549 178.904C79.5633 179.061 79.5134 179.216 79.4147 179.339C79.316 179.462 79.1755 179.545 79.0199 179.571C75.9381 180.289 72.8049 180.764 69.6488 180.993C69.62 180.993 69.5912 180.998 69.5629 181.002C69.2061 181.047 33.7745 185.281 20.2793 167.982C18.6231 165.906 17.6239 163.383 17.4096 160.737C17.2987 159.398 17.4015 158.049 17.714 156.742V156.741Z" fill="white"/>
<path d="M36.9274 126.362C36.7979 126.15 36.6276 125.966 36.4264 125.82C36.2252 125.674 35.997 125.57 35.7552 125.513C35.5133 125.456 35.2626 125.447 35.0174 125.488C34.7722 125.528 34.5375 125.617 34.3269 125.749C34.1162 125.881 33.9338 126.053 33.7901 126.256C33.6465 126.458 33.5445 126.688 33.49 126.93C33.4356 127.173 33.4297 127.423 33.4729 127.668C33.516 127.913 33.6072 128.147 33.7413 128.356C42.3745 142.158 50.882 140.452 55.186 138.208C56.086 137.757 57.0939 137.565 58.0967 137.655C59.0994 137.745 60.0574 138.112 60.8631 138.716C64.9853 141.65 69.5132 143.968 74.304 145.596C89.6324 151.042 106.369 151.042 121.697 145.596C126.489 143.968 131.017 141.65 135.139 138.716C135.945 138.111 136.902 137.744 137.905 137.654C138.908 137.565 139.916 137.756 140.816 138.208C144.982 140.38 153.233 142.109 161.684 129.257C161.82 129.051 161.914 128.82 161.96 128.578C162.006 128.335 162.004 128.086 161.954 127.845C161.905 127.603 161.807 127.373 161.669 127.169C161.53 126.965 161.353 126.79 161.146 126.655C160.94 126.519 160.709 126.425 160.467 126.379C160.225 126.333 159.975 126.335 159.734 126.384C159.492 126.434 159.263 126.531 159.058 126.67C158.854 126.809 158.679 126.986 158.544 127.192C156.923 129.658 154.87 132.184 152.484 133.886C152.632 132.437 152.445 130.973 151.938 129.608C151.431 128.242 150.616 127.011 149.558 126.01C148.263 124.792 146.694 123.905 144.983 123.421C138.121 121.5 131.094 120.22 123.995 119.597C123.747 119.57 123.497 119.593 123.259 119.664C123.021 119.735 122.799 119.852 122.606 120.009C122.413 120.166 122.254 120.36 122.137 120.58C122.019 120.799 121.947 121.039 121.923 121.287C121.899 121.534 121.925 121.784 121.999 122.022C122.072 122.259 122.192 122.48 122.352 122.67C122.511 122.861 122.707 123.018 122.928 123.133C123.148 123.248 123.389 123.317 123.637 123.338C130.503 123.939 137.299 125.175 143.937 127.031C145.065 127.345 146.102 127.926 146.96 128.724C148.814 130.501 149.246 132.88 148.251 135.798C146.304 136.16 144.291 135.834 142.558 134.876C141.033 134.101 139.322 133.766 137.618 133.911C135.913 134.055 134.283 134.672 132.91 135.692C129.084 138.407 124.883 140.551 120.439 142.056C105.927 147.212 90.0811 147.212 75.5688 142.056C71.1252 140.551 66.9242 138.407 63.098 135.692C61.725 134.672 60.0948 134.056 58.3905 133.911C56.6863 133.767 54.9757 134.101 53.4508 134.876C51.7174 135.835 49.7048 136.163 47.7564 135.804C46.7585 132.882 47.1915 130.5 49.0483 128.725C49.9057 127.926 50.9425 127.345 52.0713 127.031C59.8046 124.888 67.7397 123.555 75.7487 123.053C76.2349 123.004 76.6825 122.766 76.9966 122.392C77.3107 122.017 77.4666 121.535 77.4312 121.048C77.3958 120.56 77.1719 120.106 76.807 119.781C76.4421 119.456 75.9649 119.285 75.4766 119.306C67.2052 119.826 59.0104 121.205 51.0244 123.421C49.3137 123.905 47.7443 124.793 46.449 126.01C45.3898 127.012 44.5752 128.243 44.0679 129.61C43.5606 130.976 43.3743 132.441 43.5234 133.891C40.9108 132.027 38.6747 129.153 36.9274 126.362Z" fill="white"/>
<path d="M120.936 111.411C121.046 111.632 121.199 111.828 121.386 111.99C121.573 112.151 121.789 112.274 122.023 112.352C122.258 112.43 122.505 112.461 122.751 112.443C122.997 112.425 123.237 112.358 123.458 112.247C124.967 111.489 126.43 110.642 127.839 109.711C130.136 108.192 133.193 107.729 134.844 110.115C135.15 110.556 135.452 111.022 135.741 111.498C136.927 113.516 138.86 114.986 141.121 115.59C143.383 116.194 145.791 115.884 147.825 114.726C150.148 113.408 152.29 111.795 154.199 109.927C154.378 109.75 154.598 109.619 154.839 109.548C155.08 109.476 155.336 109.464 155.582 109.514C155.824 109.559 156.051 109.662 156.243 109.815C156.436 109.968 156.588 110.165 156.687 110.39L156.768 110.576C157.274 111.777 158.096 112.819 159.145 113.593C160.193 114.367 161.431 114.843 162.728 114.973C164.025 115.103 165.333 114.881 166.515 114.33C167.696 113.78 168.708 112.921 169.442 111.845C169.82 111.302 170.146 110.725 170.416 110.121C170.432 110.082 170.448 110.041 170.462 109.999C170.565 109.662 170.781 109.371 171.074 109.175C171.366 108.978 171.717 108.888 172.068 108.919C172.416 108.928 172.75 109.056 173.015 109.281C173.279 109.507 173.459 109.816 173.523 110.158C174.118 112.985 174.488 115.855 174.629 118.741C175.001 125.921 172.971 133.021 168.86 138.919C164.748 144.817 158.789 149.177 151.923 151.312C140.079 155.038 127.899 157.597 115.557 158.953C115.081 159.006 114.642 159.239 114.332 159.605C114.022 159.971 113.863 160.442 113.888 160.921C113.914 161.4 114.121 161.851 114.469 162.182C114.816 162.512 115.277 162.698 115.756 162.7C115.824 162.7 115.892 162.696 115.959 162.689C128.546 161.306 140.968 158.696 153.048 154.898C160.711 152.514 167.361 147.646 171.95 141.063C176.538 134.479 178.803 126.555 178.386 118.541C178.234 115.456 177.838 112.389 177.202 109.367C176.955 108.231 176.345 107.207 175.464 106.449C174.583 105.691 173.479 105.24 172.319 105.165C171.159 105.09 170.006 105.395 169.035 106.034C168.064 106.672 167.327 107.609 166.935 108.704C166.762 109.06 166.562 109.403 166.337 109.729C165.991 110.249 165.509 110.664 164.944 110.929C164.379 111.194 163.752 111.299 163.131 111.233C162.499 111.176 161.895 110.948 161.383 110.572C160.872 110.197 160.473 109.689 160.229 109.103L160.136 108.887C159.79 108.101 159.258 107.412 158.586 106.878C157.915 106.343 157.124 105.98 156.281 105.818C155.438 105.657 154.569 105.702 153.748 105.951C152.926 106.199 152.177 106.643 151.565 107.245C149.889 108.885 148.007 110.302 145.966 111.459C144.782 112.126 143.384 112.301 142.072 111.945C140.761 111.589 139.642 110.731 138.959 109.557C138.629 109.012 138.285 108.48 137.936 107.976C135.338 104.221 130.22 103.633 125.768 106.577C124.483 107.426 123.148 108.198 121.772 108.889C121.327 109.113 120.988 109.504 120.832 109.977C120.675 110.45 120.712 110.966 120.936 111.411Z" fill="white"/>
<path d="M42.9531 154.898C56.227 159.082 69.9155 161.816 83.7787 163.049C83.8335 163.054 83.8877 163.056 83.9418 163.056C84.4261 163.056 84.8914 162.868 85.2407 162.533C85.5901 162.198 85.7965 161.74 85.8169 161.256C85.8374 160.773 85.6703 160.3 85.3505 159.936C85.0307 159.572 84.5828 159.346 84.1004 159.305C70.5085 158.095 57.0878 155.415 44.0737 151.312C37.205 149.176 31.2439 144.812 27.1321 138.91C23.0203 133.007 20.9922 125.903 21.3683 118.72C21.5105 115.84 21.8798 112.976 22.4728 110.155C22.5371 109.813 22.7166 109.504 22.9814 109.278C23.2462 109.053 23.5802 108.925 23.9278 108.916C24.2793 108.884 24.6309 108.974 24.9239 109.171C25.2169 109.368 25.4334 109.659 25.5373 109.996C25.5506 110.037 25.5661 110.078 25.5829 110.118C25.852 110.722 26.1776 111.299 26.5554 111.842C27.2901 112.918 28.3014 113.777 29.483 114.328C30.6645 114.878 31.9726 115.101 33.2696 114.971C34.5667 114.841 35.8048 114.364 36.8538 113.59C37.9028 112.817 38.7239 111.774 39.2308 110.573L39.3109 110.388C39.4097 110.163 39.5621 109.965 39.7547 109.813C39.9473 109.66 40.1744 109.557 40.416 109.512C40.6627 109.462 40.918 109.473 41.1593 109.545C41.4006 109.617 41.6205 109.747 41.7995 109.924C43.7081 111.793 45.8506 113.406 48.1736 114.724C50.208 115.882 52.6164 116.192 54.8779 115.588C57.1393 114.984 59.0721 113.514 60.2581 111.496C60.5464 111.018 60.8484 110.552 61.154 110.112C61.4926 109.615 61.9339 109.197 62.4482 108.886C62.9625 108.574 63.5377 108.377 64.1349 108.307C64.8224 108.233 65.5178 108.305 66.1754 108.519C66.833 108.733 67.4378 109.084 67.95 109.548C70.3111 111.613 73.017 113.245 75.9439 114.372C76.1738 114.466 76.4201 114.514 76.6687 114.513C76.9173 114.512 77.1631 114.461 77.392 114.364C77.6209 114.267 77.8282 114.126 78.0021 113.948C78.1759 113.77 78.3128 113.56 78.4048 113.329C78.4967 113.098 78.542 112.851 78.5378 112.603C78.5337 112.354 78.4803 112.109 78.3808 111.881C78.2812 111.653 78.1375 111.448 77.9579 111.276C77.7782 111.104 77.5663 110.969 77.3343 110.88C74.8113 109.913 72.4782 108.51 70.4415 106.734C69.5311 105.918 68.4583 105.304 67.2935 104.932C66.1288 104.56 64.8985 104.438 63.6835 104.576C62.5581 104.706 61.474 105.077 60.5044 105.663C59.5349 106.249 58.7027 107.037 58.0641 107.973C57.7136 108.478 57.3723 109.011 57.0414 109.555C56.3574 110.729 55.2389 111.586 53.9276 111.942C52.6163 112.298 51.2176 112.124 50.0338 111.457C47.993 110.3 46.1109 108.884 44.4346 107.243C43.8226 106.641 43.0737 106.197 42.2522 105.948C41.4308 105.7 40.5612 105.654 39.7183 105.816C38.8754 105.977 38.0843 106.341 37.4129 106.875C36.7415 107.41 36.2099 108.1 35.8636 108.885L35.7714 109.1C35.5283 109.687 35.1294 110.196 34.6179 110.572C34.1064 110.948 33.5017 111.177 32.8694 111.233C32.2486 111.299 31.6216 111.194 31.0564 110.929C30.4912 110.664 30.0093 110.249 29.6631 109.729C29.4385 109.405 29.239 109.063 29.0665 108.708C28.6761 107.613 27.9395 106.674 26.9683 106.035C25.9971 105.396 24.844 105.09 23.6836 105.165C22.5232 105.239 21.4187 105.689 20.5371 106.448C19.6556 107.206 19.045 108.231 18.7978 109.367C18.1637 112.383 17.7682 115.444 17.6149 118.522C17.195 126.539 19.4581 134.467 24.0467 141.055C28.6352 147.642 35.2876 152.513 42.9531 154.898Z" fill="white"/>
<path d="M156.123 89.6827C157.352 90.6331 158.86 91.1497 160.413 91.1515C161.079 91.1509 161.742 91.0572 162.382 90.8731C165.841 89.9096 168.812 87.6823 170.707 84.6322C173.528 80.228 173.042 76.3962 172.137 73.9571C171.499 72.2623 170.236 70.8763 168.608 70.0843C166.979 69.2922 165.109 69.1545 163.382 69.6993C157.041 71.6732 153.488 76.7547 153.372 84.0091C153.351 85.1047 153.589 86.1899 154.067 87.1759C154.545 88.162 155.25 89.0209 156.123 89.6827ZM164.499 73.2879C165.307 73.0284 166.185 73.0887 166.95 73.4564C167.715 73.8241 168.311 74.4712 168.613 75.2646C169.497 77.6466 169.137 80.1161 167.542 82.6053C166.133 84.8783 163.923 86.5395 161.348 87.2603C160.848 87.4056 160.322 87.4306 159.811 87.3332C159.3 87.2358 158.819 87.0189 158.408 86.7C158.002 86.3935 157.675 85.9954 157.452 85.5381C157.23 85.0808 157.119 84.5774 157.128 84.069C157.22 78.4092 159.7 74.7821 164.499 73.2879Z" fill="white"/>
<path d="M172.666 154.369C170.319 158.213 167.203 161.53 163.512 164.111C162.627 164.71 161.565 164.99 160.5 164.907C159.434 164.824 158.429 164.382 157.648 163.653C157.089 163.124 156.556 162.596 156.066 162.084C154.824 160.775 153.152 159.958 151.356 159.783C149.56 159.609 147.762 160.089 146.291 161.134C141.644 164.398 131.53 170.489 115.99 174.612C115.032 174.864 114.186 175.429 113.587 176.217C112.987 177.005 112.668 177.971 112.681 178.961C112.694 179.951 113.037 180.909 113.656 181.681C114.275 182.454 115.135 182.997 116.099 183.225C119.359 183.986 122.674 184.492 126.014 184.738C129.507 185.126 133.02 185.312 136.535 185.296C148.831 185.296 168.679 183.123 178.686 170.295C180.802 167.631 182.075 164.397 182.342 161.006C182.481 159.268 182.342 157.519 181.931 155.825C181.687 154.856 181.164 153.979 180.425 153.305C179.687 152.631 178.767 152.189 177.779 152.034C176.792 151.878 175.78 152.017 174.871 152.433C173.962 152.848 173.195 153.522 172.665 154.37L172.666 154.369ZM178.287 156.741C178.6 158.048 178.704 159.397 178.594 160.737C178.379 163.384 177.38 165.906 175.723 167.982C162.228 185.281 126.797 181.048 126.441 181.002C126.412 180.999 126.383 180.996 126.355 180.993C123.198 180.764 120.065 180.289 116.983 179.571C116.827 179.545 116.687 179.462 116.588 179.339C116.489 179.216 116.44 179.061 116.448 178.904C116.436 178.751 116.482 178.599 116.575 178.477C116.668 178.355 116.803 178.272 116.954 178.244C132.25 174.185 142.525 168.371 148.451 164.208C149.09 163.757 149.852 163.514 150.634 163.512C151.142 163.513 151.645 163.616 152.112 163.817C152.579 164.018 153 164.312 153.35 164.68C153.885 165.239 154.462 165.811 155.066 166.383C156.471 167.696 158.281 168.494 160.199 168.646C162.116 168.798 164.029 168.295 165.624 167.219C169.75 164.341 173.236 160.64 175.861 156.349C175.994 156.125 176.193 155.947 176.429 155.838C176.666 155.73 176.931 155.697 177.187 155.743C177.45 155.78 177.695 155.895 177.891 156.073C178.087 156.252 178.225 156.485 178.287 156.742V156.741Z" fill="white"/>
<path d="M142.03 39.0444V33.029H148.044V27.0135H142.03V21H136.015V27.0135H130V33.029H136.015V39.0444H142.03Z" fill="white"/>
<path d="M148 53H154.767V58.6389H148V53Z" fill="white"/>
<path d="M36 43H42.7667V48.6389H36V43Z" fill="white"/>
<path d="M52 59H58.7667V64.6389H52V59Z" fill="white"/>
<path d="M95 160H101.767V165.639H95V160Z" fill="white"/>
</svg>
