<svg width="203" height="203" viewBox="0 0 203 203" fill="none" xmlns="http://www.w3.org/2000/svg">
<path d="M7.23954 194.303C7.26186 194.83 7.48678 195.328 7.86735 195.693C8.24793 196.058 8.75476 196.262 9.28208 196.262H9.37045C9.91253 196.239 10.4233 196.002 10.7903 195.602C11.1573 195.202 11.3506 194.673 11.3276 194.131C11.3145 193.825 10.1221 163.247 18.352 139.823C21.311 131.37 23.6579 122.715 25.3746 113.925C29.8263 118.4 36.8113 122.247 47.7189 123.99C54.3091 125.252 60.6478 127.587 66.4827 130.9C79.4007 138.199 87.5917 148.918 90.8284 162.759C90.8895 163.021 91.0016 163.268 91.1582 163.486C91.3148 163.705 91.5129 163.89 91.7411 164.032C91.9694 164.173 92.2233 164.269 92.4884 164.312C92.7535 164.356 93.0246 164.347 93.2862 164.286C93.5478 164.225 93.7948 164.113 94.0131 163.956C94.2314 163.799 94.4166 163.601 94.5584 163.373C94.7001 163.145 94.7955 162.891 94.8391 162.626C94.8827 162.361 94.8737 162.09 94.8126 161.828C90.4284 143.08 78.0095 132.684 68.3628 127.263C62.1423 123.729 55.3757 121.257 48.3417 119.949C33.7806 117.621 25.1161 111.197 22.5798 100.85C22.0071 98.3006 21.9523 95.6617 22.4187 93.0903C22.885 90.5189 23.863 88.0673 25.2946 85.881C31.962 75.3775 43.7282 71.6877 50.3114 70.4136C50.3442 70.8959 50.4074 71.3757 50.5006 71.8501C45.4501 75.0324 42.6093 79.9934 41.0934 83.7184C39.0915 88.4514 38.6542 93.7003 39.8455 98.6992C43.4177 113.039 58.5562 116.969 59.9789 117.307C78.6633 123.111 91.3275 134.933 97.6217 152.446C100.49 160.455 101.812 168.936 101.517 177.438C101.512 177.491 101.51 177.545 101.51 177.599V194.219C101.506 194.491 101.555 194.76 101.656 195.013C101.757 195.265 101.907 195.495 102.097 195.688C102.287 195.882 102.515 196.036 102.765 196.141C103.016 196.246 103.285 196.3 103.556 196.3C103.828 196.3 104.097 196.246 104.347 196.141C104.598 196.036 104.825 195.882 105.015 195.688C105.206 195.495 105.356 195.265 105.456 195.013C105.557 194.76 105.607 194.491 105.602 194.219V177.672C105.885 170.87 105.154 164.064 103.432 157.478C103.436 157.459 103.443 157.443 103.446 157.424C104.304 151.88 105.467 146.387 106.931 140.97C112.327 121.042 108.867 101.399 108.119 97.6633C108.094 97.5408 108.057 97.4208 108.009 97.3051C108.039 96.683 108.054 96.0417 108.064 95.3945C119.433 110.689 114.252 136.126 111.274 146.973C110.112 151.219 109.524 155.602 109.527 160.004V194.215C109.522 194.487 109.572 194.757 109.673 195.009C109.773 195.261 109.923 195.491 110.114 195.685C110.304 195.879 110.531 196.032 110.782 196.137C111.032 196.242 111.301 196.297 111.573 196.297C111.845 196.297 112.113 196.242 112.364 196.137C112.614 196.032 112.842 195.879 113.032 195.685C113.222 195.491 113.372 195.261 113.473 195.009C113.574 194.757 113.623 194.487 113.619 194.215V160.004C113.616 155.968 114.154 151.949 115.219 148.056C117.447 140.047 118.749 131.81 119.1 123.505C124.398 128.326 130.975 131.516 138.042 132.69C137.352 135.365 136.989 138.113 136.963 140.875C136.955 141.417 137.164 141.941 137.542 142.33C137.92 142.719 138.437 142.942 138.979 142.95H139.009C139.547 142.95 140.062 142.738 140.445 142.361C140.828 141.984 141.047 141.471 141.055 140.934C141.136 135.328 142.602 131.836 142.632 131.764C142.636 131.755 142.638 131.745 142.642 131.736C142.646 131.726 142.654 131.712 142.659 131.7C143.074 130.605 143.752 129.629 144.632 128.857C145.334 128.254 146.158 127.811 147.049 127.561C147.939 127.311 148.874 127.258 149.787 127.408C150.802 127.562 151.772 127.934 152.63 128.497C153.489 129.061 154.216 129.803 154.761 130.673C155.416 131.731 155.896 132.887 156.182 134.098C147.157 149.575 151.756 192.589 151.96 194.441C152.019 194.981 152.29 195.474 152.714 195.814C153.137 196.153 153.678 196.311 154.217 196.251C154.756 196.192 155.25 195.921 155.589 195.498C155.929 195.075 156.086 194.534 156.027 193.995C155.993 193.684 153.683 172.101 155.259 154.426H160.907C161.862 164.699 162.772 179.547 162.004 194.11C161.975 194.652 162.163 195.183 162.526 195.586C162.889 195.989 163.398 196.231 163.939 196.26H164.049C164.572 196.259 165.076 196.058 165.456 195.697C165.835 195.337 166.062 194.844 166.09 194.321C166.861 179.693 165.971 164.819 165.015 154.422H167.613C168.469 155.765 169.73 156.802 171.213 157.384C171.281 178.362 171.176 194.044 171.175 194.2C171.171 194.742 171.383 195.264 171.763 195.65C172.144 196.036 172.662 196.255 173.205 196.26H173.219C173.759 196.26 174.277 196.046 174.66 195.666C175.043 195.286 175.26 194.77 175.264 194.23C175.264 194.072 175.37 178.639 175.305 157.906C175.305 157.906 182.748 157.889 182.957 157.874C182.916 173.412 182.753 185.615 182.469 194.147C182.46 194.416 182.504 194.684 182.599 194.935C182.693 195.187 182.836 195.417 183.02 195.613C183.203 195.81 183.424 195.968 183.669 196.079C183.913 196.19 184.177 196.252 184.446 196.26H184.515C185.045 196.26 185.555 196.053 185.936 195.684C186.318 195.315 186.541 194.813 186.558 194.282C186.851 185.473 187.017 172.788 187.052 156.593C188.429 155.775 189.57 154.614 190.363 153.223C191.157 151.831 191.575 150.258 191.577 148.656V137.418C191.575 135.808 191.152 134.225 190.35 132.828C189.548 131.431 188.395 130.267 187.005 129.453C186.88 104.102 186.572 79.8692 186.398 67.6122C186.361 64.0296 186.981 60.4705 188.226 57.1111C191.673 47.3191 194.216 37.2321 195.824 26.9763C195.895 26.4911 195.789 25.9965 195.526 25.5828C189.596 16.2902 176.42 7.45251 175.86 7.08114C175.476 6.82598 175.018 6.70752 174.559 6.74489C174.1 6.78227 173.668 6.97331 173.331 7.28713C160.65 19.1089 157.858 37.6565 157.747 38.4399C157.677 38.9294 157.786 39.4278 158.055 39.843C162.02 45.9736 169.07 50.9835 172.169 53.0027L171.203 55.3121C169.758 58.7883 169.116 62.5458 169.325 66.3046C170.152 80.9731 170.72 101.984 171.013 128.764C169.33 129.484 167.966 130.792 167.176 132.444H159.982C159.584 131.05 158.994 129.719 158.228 128.489C157.369 127.121 156.225 125.955 154.874 125.07C153.523 124.185 151.998 123.602 150.401 123.36C148.907 123.128 147.381 123.222 145.926 123.634C144.472 124.046 143.123 124.767 141.972 125.748C140.984 126.599 140.157 127.621 139.53 128.765C131.698 127.657 124.523 123.778 119.306 117.833C119.233 117.751 119.153 117.677 119.067 117.609C118.584 107.117 115.704 96.465 107.836 88.9499C107.802 88.5319 107.776 88.1199 107.733 87.6912C107.544 85.6089 107.033 83.5684 106.219 81.6424C104.775 78.2947 102.979 76.7991 101.353 76.1997C101.087 72.0356 100.515 67.8967 99.641 63.8167C119.459 66.6187 132.137 61.9198 139.515 57.1296C148.676 51.1865 151.908 43.9071 152.041 43.5996C152.167 43.308 152.224 42.9908 152.206 42.6734C152.189 42.3559 152.098 42.0469 151.94 41.7709C151.782 41.4949 151.562 41.2594 151.298 41.0832C151.033 40.907 150.731 40.7949 150.415 40.7559C134.192 38.7468 116.048 38.8769 101.088 39.6161C100.507 34.8976 98.962 30.3489 96.5505 26.2518C94.1389 22.1547 90.9117 18.5965 87.0687 15.7976C80.1912 10.648 72.313 8.16361 66.915 6.98681C64.7988 6.53237 62.5965 6.69675 60.5712 7.46032C58.5459 8.22389 56.7833 9.55436 55.4938 11.2928C48.5715 20.6099 43.1449 23.1235 39.8115 23.5922C36.6268 24.0388 34.8613 22.7205 34.8129 22.6841C34.4965 22.4253 34.1099 22.2672 33.7029 22.2301C33.2958 22.193 32.887 22.2787 32.5291 22.4762C32.1712 22.6736 31.8806 22.9737 31.6948 23.3377C31.509 23.7018 31.4366 24.1132 31.4867 24.5188C31.6606 25.9629 31.9493 27.3908 32.35 28.789C32.9094 30.738 33.9178 32.5287 35.2944 34.0175C36.6709 35.5062 38.3773 36.6516 40.2766 37.3616C42.2082 38.1032 44.2866 38.3822 46.3454 38.1762C48.4041 37.9701 50.3861 37.2849 52.1324 36.1752C53.8519 35.0934 55.332 34.2646 56.5035 33.6526L55.9106 44.1525C50.9831 44.9287 46.5308 45.752 42.7466 46.5933C21.4185 51.3334 12.4387 48.6567 12.3635 48.6335C11.9433 48.496 11.49 48.4983 11.0712 48.6401C10.6525 48.7818 10.2909 49.0554 10.0406 49.4198C9.79037 49.7842 9.66486 50.2199 9.68289 50.6616C9.70091 51.1033 9.86152 51.5273 10.1407 51.8701C18.466 62.0876 28.7008 65.24 38.1636 65.24C42.6225 65.2008 47.0569 64.5765 51.3532 63.3832C51.0311 64.2991 50.7843 65.2398 50.6153 66.1959C43.6655 67.3901 29.7116 71.2847 21.837 83.685C20.1108 86.3372 18.935 89.3092 18.3795 92.4246C17.8239 95.54 17.8998 98.7352 18.6028 101.821C19.283 104.628 20.4274 107.302 21.9887 109.733C20.2707 119.497 17.7634 129.105 14.4914 138.464C5.99587 162.644 7.18461 193.022 7.23954 194.303ZM159.51 136.536H166.431V150.332H155.713C156.439 144.811 157.634 139.923 159.51 136.536ZM161.926 38.2715C162.553 34.9011 165.627 20.9849 174.945 11.4319C178.311 13.8321 187.105 20.4541 191.657 27.1513C191.138 30.382 188.883 43.3763 184.383 55.7104C182.967 59.5377 182.263 63.5919 182.307 67.6725C182.478 79.7163 182.779 103.331 182.904 128.201C182.712 128.189 182.521 128.172 182.325 128.172H175.1C174.801 101.591 174.236 80.7057 173.41 66.0777C173.235 62.9373 173.772 59.798 174.979 56.8938L176.499 53.2565C181.324 46.9089 183.838 39.1042 183.624 31.1337C183.523 28.2834 182.295 25.5898 180.21 23.6436L178.188 21.7389C177.883 21.4524 177.498 21.266 177.085 21.2049C176.671 21.1437 176.248 21.2107 175.874 21.3968C175.295 21.6852 170.157 24.52 168.137 35.2229C168.04 35.7547 168.158 36.3033 168.464 36.7489C168.77 37.1944 169.24 37.5008 169.771 37.6011C170.302 37.7013 170.851 37.5873 171.299 37.2839C171.746 36.9805 172.055 36.5124 172.159 35.9818C173.262 30.1306 175.39 27.2086 176.663 25.9231L177.405 26.6229C178.695 27.837 179.459 29.5068 179.535 31.2764C179.851 39.9122 176.092 46.6333 174.207 49.4371C171.397 47.5856 165.445 43.3041 161.926 38.2715ZM170.523 135.679C170.524 134.774 170.884 133.905 171.525 133.265C172.165 132.625 173.033 132.264 173.939 132.263H182.329C183.696 132.265 185.007 132.809 185.974 133.775C186.94 134.742 187.484 136.053 187.486 137.42V148.66C187.484 150.027 186.94 151.338 185.974 152.305C185.007 153.272 183.696 153.815 182.329 153.817H173.938C173.033 153.816 172.164 153.456 171.524 152.815C170.884 152.175 170.524 151.307 170.523 150.401L170.523 135.679ZM102.984 139.903C102.155 142.968 101.424 146.086 100.78 149.224C95.7744 136.526 84.8697 120.727 61.1229 113.376C61.072 113.36 61.0206 113.346 60.9689 113.334C60.8286 113.303 46.886 110.02 43.8184 97.7087C42.8395 93.5513 43.2135 89.19 44.8859 85.26C46.1105 82.2503 48.3327 78.3049 52.1288 75.682C52.4837 76.1685 52.897 76.6097 53.3594 76.9955C54.1892 77.6782 55.1606 78.1677 56.2031 78.4285C55.3387 79.7877 54.6687 81.2612 54.2126 82.8061C53.512 85.2355 53.3141 87.7823 53.6309 90.2908C53.9477 92.7993 54.7725 95.2169 56.0551 97.3959C58.0022 100.701 60.5861 103.586 63.6568 105.885C63.913 106.08 64.2114 106.212 64.5279 106.269C64.8444 106.327 65.17 106.31 65.4785 106.218C66.7938 105.771 68.0053 105.064 69.0405 104.137C74.534 113.687 83.2253 120.988 93.5796 124.752C93.8584 124.853 94.1558 124.892 94.4511 124.866C94.7465 124.841 95.0328 124.751 95.2902 124.604C95.6944 124.373 101.992 120.623 105.595 110.362C106.109 118.287 105.921 129.054 102.984 139.901L102.984 139.903ZM103.665 88.0984C105.806 109.912 96.7387 118.482 94.0041 120.543C77.542 114.129 71.3649 99.728 71.3052 99.5859C71.1551 99.2233 70.904 98.9115 70.5818 98.6876C70.2596 98.4638 69.8798 98.3372 69.4877 98.3231H69.4137C69.0338 98.3231 68.6615 98.4289 68.3384 98.6287C68.0152 98.8284 67.7541 99.1141 67.5843 99.4539C67.0458 100.484 66.2149 101.331 65.196 101.89C62.9564 100.057 61.0591 97.8415 59.592 95.3467C58.5891 93.651 57.9424 91.7687 57.6913 89.8146C57.4402 87.8606 57.59 85.8759 58.1316 83.9817C58.5592 82.5097 59.2434 81.1247 60.1527 79.8907C62.2227 83.5507 66.7699 89.535 74.3752 89.535C81.8468 89.535 86.2262 85.7562 88.5852 82.5858C89.2178 81.758 90.0342 81.0887 90.9699 80.6306C91.9055 80.1725 92.9349 79.9382 93.9767 79.9462H99.3914C100.816 79.9462 101.927 82.0282 102.462 83.2694C103.109 84.8069 103.515 86.4352 103.664 88.0967L103.665 88.0984ZM95.8431 65.5684C95.0074 65.8108 94.1846 66.0956 93.3778 66.4216C92.8775 66.6318 92.4812 67.0322 92.2761 67.5346C92.0709 68.037 92.0738 68.6003 92.284 69.1006C92.4942 69.6009 92.8946 69.9972 93.397 70.2024C93.8994 70.4075 94.4627 70.4047 94.963 70.1944C94.9726 70.1903 95.6049 69.9299 96.5524 69.6308C96.8426 71.6091 97.0698 73.6838 97.2342 75.8552H93.9767C92.2968 75.8472 90.6382 76.2301 89.1319 76.9737C87.6256 77.7174 86.313 78.8012 85.2978 80.1396C83.4995 82.5577 80.144 85.4397 74.3716 85.4397C66.5197 85.4397 62.7075 75.8552 62.6371 75.6742C62.4894 75.2007 62.1635 74.8031 61.728 74.5656C61.2926 74.328 60.7818 74.2691 60.3037 74.4013C58.3776 74.8067 56.9214 74.621 55.9769 73.849C54.6562 72.7708 54.3791 70.5885 54.3845 69.8135C54.324 67.0964 55.0586 64.4209 56.4981 62.1156C57.5615 61.8894 58.6314 61.6893 59.7061 61.5066C61.0602 63.2801 62.1497 65.2408 62.9404 67.3274C63.3041 68.3057 63.9461 69.1563 64.7873 69.7743C65.6285 70.3923 66.6321 70.7506 67.6744 70.8052C67.7873 70.8118 67.8995 70.8154 68.0118 70.8154C68.9897 70.8206 69.9501 70.555 70.7864 70.0482C71.6228 69.5413 72.3026 68.8129 72.7506 67.9435C73.996 65.5787 74.8498 63.0276 75.2786 60.3895C80.8351 60.5162 86.3658 61.1871 91.7914 62.3927C92.9754 62.656 94.1307 62.8864 95.2711 63.1008C95.4723 63.9026 95.6646 64.7212 95.8395 65.5666L95.8431 65.5684ZM64.2688 60.863C66.54 60.6099 68.8264 60.4532 71.1278 60.3931C70.7403 62.3634 70.0681 64.2669 69.1325 66.0437C69.0215 66.2639 68.8473 66.446 68.6323 66.5666C68.4172 66.6873 68.171 66.7409 67.9252 66.7208C67.6705 66.7108 67.4246 66.625 67.219 66.4742C67.0135 66.3234 66.8577 66.1147 66.7717 65.8747C66.1084 64.1229 65.2686 62.4431 64.2652 60.8612L64.2688 60.863ZM17.2391 53.4177C22.3869 53.7162 30.9493 53.4063 43.6345 50.5876C49.9364 49.1869 58.143 47.8316 67.3658 46.6679C67.9041 46.6 68.3935 46.321 68.7262 45.8922C69.0588 45.4635 69.2076 44.9202 69.1396 44.3818C69.0717 43.8434 68.7927 43.3541 68.3639 43.0214C67.9352 42.6887 67.3919 42.54 66.8535 42.6079C64.516 42.9029 62.2412 43.2104 60.047 43.5274L60.7808 30.5354L60.9474 29.3413C61.1698 27.7316 61.0384 26.0928 60.5623 24.5391C60.4856 24.2795 60.3583 24.0376 60.1875 23.8275C60.0167 23.6175 59.8059 23.4434 59.5674 23.3153C59.3288 23.1873 59.0673 23.1079 58.7978 23.0817C58.5283 23.0555 58.2564 23.083 57.9976 23.1627C57.7389 23.2424 57.4985 23.3726 57.2905 23.5459C57.0824 23.7191 56.9109 23.9319 56.7856 24.172C56.6604 24.412 56.5841 24.6745 56.5611 24.9442C56.5381 25.214 56.5688 25.4856 56.6515 25.7434C56.9521 26.7245 57.0352 27.7594 56.8951 28.7759L56.8754 28.9144C54.4876 30.0255 52.1763 31.294 49.9567 32.7117C48.7451 33.4824 47.3698 33.9585 45.941 34.1018C44.5122 34.2451 43.0698 34.0516 41.7292 33.5368C40.425 33.0496 39.2529 32.2638 38.3069 31.2422C37.361 30.2207 36.6674 28.9918 36.2817 27.654C36.2739 27.6277 36.2668 27.6021 36.2596 27.5764C37.5447 27.8152 38.8593 27.8509 40.1554 27.6821C46.197 26.9351 52.4638 22.2446 58.7836 13.7413C59.6034 12.6347 60.7243 11.7874 62.0125 11.3004C63.3007 10.8134 64.7018 10.7073 66.0486 10.9949C76.453 13.2637 94.0406 20.0224 96.9924 39.8489C94.3725 40.0024 91.8702 40.1713 89.5292 40.3463C88.9943 40.3948 88.4999 40.6517 88.1528 41.0616C87.8057 41.4714 87.6336 42.0013 87.6737 42.5369C87.7138 43.0725 87.9629 43.5708 88.3673 43.9244C88.7716 44.2779 89.2987 44.4583 89.8349 44.4266C105.191 43.2772 127.211 42.3966 146.839 44.4737C144.257 48.2302 140.935 51.4199 137.077 53.8476C126.119 60.8481 110.769 62.4225 92.6858 58.3989C78.841 55.2659 64.4386 55.5802 50.7436 59.3142C37.0949 63.1139 25.8552 61.1287 17.2391 53.4177Z" fill="white"/>
<path d="M86.1163 66.7954C85.146 66.5457 84.1583 66.3697 83.1615 66.2688C82.8924 66.2403 82.6204 66.2656 82.3612 66.343C82.1019 66.4204 81.8606 66.5484 81.6512 66.7197C81.4418 66.8909 81.2684 67.102 81.1411 67.3408C81.0138 67.5795 80.9351 67.8411 80.9095 68.1104C80.884 68.3797 80.9121 68.6515 80.9923 68.9099C81.0724 69.1683 81.2031 69.4082 81.3766 69.6158C81.5501 69.8233 81.763 69.9945 82.0031 70.1192C82.2431 70.244 82.5056 70.3198 82.7752 70.3425C83.5338 70.4207 84.2859 70.5534 85.0255 70.7395C85.5481 70.8831 86.1064 70.8134 86.5778 70.5457C87.0491 70.2781 87.395 69.8343 87.5394 69.3119C87.6839 68.7895 87.6152 68.2311 87.3484 67.7593C87.0816 67.2875 86.6385 66.9408 86.1163 66.7954Z" fill="white"/>
<path d="M151.874 84.5835V78.568H157.889V72.5525H151.874V66.5391H145.86V72.5525H139.845V78.568H145.86V84.5835H151.874Z" fill="white"/>
<path d="M130.822 94.7333H137.589V100.372H130.822V94.7333Z" fill="#FDFEFE"/>
<path d="M148.866 107.139H155.633V112.778H148.866V107.139Z" fill="#FDFEFE"/>
</svg>
