<svg width="80" height="80" viewBox="0 0 80 80" fill="none" xmlns="http://www.w3.org/2000/svg">
<g clip-path="url(#clip0_579_4380)">
<path d="M55 0H10C4.485 0 0 4.485 0 10V40C0 45.515 4.485 50 10 50V62.5C10 63.475 10.57 64.365 11.455 64.77C11.79 64.925 12.145 65 12.5 65C13.085 65 13.665 64.795 14.125 64.395L30.925 50H55C60.515 50 65 45.515 65 40V10C65 4.485 60.515 0 55 0ZM60 40C60 42.755 57.755 45 55 45H30C29.405 45 28.825 45.21 28.375 45.605L15 57.065V47.5C15 46.12 13.88 45 12.5 45H10C7.245 45 5 42.755 5 40V10C5 7.245 7.245 5 10 5H55C57.755 5 60 7.245 60 10V40Z" fill="white"/>
<path d="M32.75 30.5C30.65 30.5 29 28.8125 29 26.75C29 24.6875 30.6875 23 32.75 23C34.8125 23 36.5 24.6875 36.5 26.75C36.5 28.8125 34.85 30.5 32.75 30.5Z" fill="white"/>
<path d="M47.75 30.5C45.65 30.5 44 28.8125 44 26.75C44 24.6875 45.6875 23 47.75 23C49.8125 23 51.5 24.6875 51.5 26.75C51.5 28.8125 49.85 30.5 47.75 30.5Z" fill="white"/>
<path d="M17.75 30.5C15.65 30.5 14 28.8125 14 26.75C14 24.6875 15.6875 23 17.75 23C19.8125 23 21.5 24.6875 21.5 26.75C21.5 28.8125 19.85 30.5 17.75 30.5Z" fill="white"/>
<path d="M73.3146 15.5848C72.0046 15.1348 70.5896 15.8248 70.1346 17.1348C69.6846 18.4398 70.3746 19.8598 71.6846 20.3148C73.6646 20.9948 74.9996 22.8798 74.9996 24.9998V54.9998C74.9996 57.7548 72.7546 59.9998 69.9996 59.9998H67.4996C66.1196 59.9998 64.9996 61.1198 64.9996 62.4998V72.0648L51.6246 60.6048C51.1746 60.2098 50.5946 59.9998 49.9996 59.9998H27.8496C26.4696 59.9998 25.3496 61.1198 25.3496 62.4998C25.3496 63.8798 26.4646 64.9998 27.8496 64.9998H49.0746L65.8746 79.3948C66.3346 79.7948 66.9146 79.9998 67.4996 79.9998C67.8546 79.9998 68.2096 79.9248 68.5446 79.7698C69.4296 79.3648 69.9996 78.4748 69.9996 77.4998V64.9998C75.5146 64.9998 79.9996 60.5148 79.9996 54.9998V24.9998C79.9996 20.7498 77.3146 16.9648 73.3146 15.5848Z" fill="white"/>
</g>
<defs>
<clipPath id="clip0_579_4380">
<rect width="80" height="80" fill="white"/>
</clipPath>
</defs>
</svg>
