<svg width="19" height="19" viewBox="0 0 19 19" fill="none" xmlns="http://www.w3.org/2000/svg">
<path d="M10.7166 0.728744C10.2607 -0.242915 8.73921 -0.242915 8.28321 0.728744L6.0832 5.39686L1.16094 6.1464C0.652017 6.22411 0.225243 6.59888 0.0661862 7.11389C-0.0928705 7.62749 0.0396772 8.19244 0.410809 8.56996L3.97067 12.2053L3.1278 17.3384C3.04031 17.8714 3.24976 18.41 3.66858 18.7278C4.08739 19.0485 4.64137 19.0874 5.09728 18.8362L9.50002 16.4139L13.9028 18.8362C14.3748 19.0965 14.928 19.0364 15.3315 18.7278C15.7503 18.41 15.9596 17.8714 15.8722 17.3384L15.0294 12.2053L18.5892 8.56996C18.9604 8.19244 19.0928 7.62749 18.9339 7.11389C18.7748 6.59888 18.348 6.22411 17.8391 6.1464L12.9168 5.39686L10.7166 0.728744Z" fill="#D8F651"/>
</svg>
