<svg width="98" height="98" viewBox="0 0 98 98" fill="none" xmlns="http://www.w3.org/2000/svg">
<path d="M87.5222 31.6139C86.2502 33.5392 84.8193 35.3547 83.2446 37.0413C83.1627 37.129 83.099 37.2321 83.0573 37.3446C83.0156 37.4571 82.9967 37.5767 83.0016 37.6966C83.0066 37.8165 83.0354 37.9342 83.0862 38.0429C83.1371 38.1515 83.2091 38.249 83.298 38.3296C83.4807 38.4827 83.7141 38.5622 83.9523 38.5524C84.1906 38.5426 84.4166 38.4442 84.5862 38.2765C86.2424 36.5075 87.7434 34.5995 89.0729 32.5734V32.572C90.4218 30.3855 91.0752 28.4565 91.0197 26.8325C90.9816 25.7167 90.1212 24.5047 89.0386 24.2326C88.4868 24.0872 87.9028 24.1251 87.3745 24.3406C86.8462 24.5562 86.4024 24.9377 86.1099 25.4276C84.9416 27.3366 83.702 28.7556 82.3206 29.7659C82.1497 29.9006 81.9337 29.9647 81.7171 29.945C81.5004 29.9253 81.2995 29.8233 81.1558 29.66C81.0036 29.5154 80.914 29.3171 80.9061 29.1073C80.8982 28.8976 80.9727 28.6931 81.1136 28.5375L81.1555 28.4867C86.3339 23.003 87.2257 17.4269 83.6006 13.1877C78.0406 6.68351 63.1947 5.33662 51.6495 13.2701C51.472 13.3919 51.3433 13.5726 51.2863 13.7801C51.2292 13.9877 51.2473 14.2087 51.3376 14.4042C51.4279 14.5996 51.5843 14.7568 51.7794 14.8479C51.9744 14.939 52.1954 14.9582 52.4032 14.9021C61.8501 12.3552 68.6529 14.3469 71.9493 15.8184C72.8301 16.1941 73.5565 16.8588 74.0088 17.7029C74.3455 18.3431 74.4993 19.0638 74.4533 19.7858C74.4073 20.5077 74.1633 21.203 73.7481 21.7954C73.5651 22.0521 73.3675 22.2981 73.1563 22.5321C72.4015 21.5057 70.8003 20.5435 67.5215 20.2758C57.4799 19.4547 46.0658 24.8698 39.4748 28.6378C47.1793 21.2347 56.3834 18.038 63.2551 16.6662C63.4639 16.628 63.6533 16.5191 63.7914 16.3579C63.9295 16.1966 64.008 15.9928 64.0137 15.7806C64.0155 15.6447 63.9869 15.51 63.93 15.3865C63.873 15.2631 63.7893 15.1538 63.6848 15.0669C63.5802 14.9799 63.4576 14.9174 63.3259 14.8838C63.1941 14.8503 63.0565 14.8466 62.9231 14.873C54.431 16.5645 42.4859 20.9515 33.8037 32.2459C33.6709 32.4187 33.6045 32.6334 33.6164 32.8511C33.6283 33.0687 33.7178 33.2749 33.8686 33.4322C34.0195 33.5895 34.2217 33.6876 34.4386 33.7087C34.6556 33.7297 34.8729 33.6724 35.0512 33.547C35.2306 33.4206 53.1548 20.9347 67.3717 22.0931C68.8406 22.213 70.0042 22.4948 70.7907 22.9051C70.9332 22.9805 71.0543 23.0908 71.1427 23.2257C71.2311 23.3606 71.2839 23.5157 71.2961 23.6765C71.3083 23.8373 71.2796 23.9986 71.2127 24.1453C71.1458 24.2921 71.0427 24.4194 70.9132 24.5156C68.0899 26.6055 63.5542 28.9512 56.894 31.7954C43.5395 37.4979 35.4541 37.2985 31.0228 36.127C30.5154 35.9904 30.0442 35.7436 29.6429 35.4043C29.2416 35.0649 28.92 34.6414 28.7009 34.1636C28.4818 33.6859 28.3707 33.1658 28.3754 32.6403C28.3801 32.1148 28.5006 31.5967 28.7282 31.123C32.5762 23.1587 42.036 18.6134 42.1296 18.5685C42.3264 18.4764 42.4838 18.317 42.5735 18.1191C42.6632 17.9212 42.6792 17.6977 42.6187 17.489C42.5583 17.2803 42.4252 17.1 42.2436 16.9808C42.0619 16.8615 41.8437 16.811 41.6281 16.8384C41.0619 16.9087 27.6696 18.6952 19.6311 30.7506C18.9068 31.8172 18.439 33.037 18.2645 34.3144C17.9777 36.6185 18.5317 40.7365 25.3705 42.6277C26.1593 43.4259 29.1941 46.088 35.2943 46.9358C44.4981 48.2158 56.0025 44.9074 69.491 37.1014C69.5045 37.0953 71.605 35.8464 72.4041 36.9361C73.2032 38.0258 71.6974 38.9301 71.3124 39.299C65.4245 43.4041 59.0393 46.7451 52.3099 49.2419C52.1073 49.3181 51.9384 49.4638 51.8334 49.6531C51.7284 49.8425 51.6942 50.063 51.7369 50.2752C51.7796 50.4874 51.8965 50.6775 52.0665 50.8115C52.2366 50.9454 52.4487 51.0145 52.6651 51.0064C58.6857 50.6176 64.6157 49.3409 70.2628 47.2176C70.3659 47.1715 70.4826 47.1658 70.5897 47.2017C70.6967 47.2376 70.7864 47.3125 70.8408 47.4114C70.9036 47.5002 70.9301 47.6096 70.9148 47.7172C70.8995 47.8248 70.8437 47.9225 70.7587 47.9903C67.0902 51.3626 60.6297 55.5144 50.6874 56.1376C47.1186 56.361 44.6228 55.8206 43.2682 54.5312C42.4076 53.7118 41.9956 52.5846 42.0073 51.0852C42.013 50.9179 41.9754 50.752 41.8982 50.6034C41.8051 50.4328 41.6601 50.2963 41.4842 50.2138C41.3083 50.1312 41.1106 50.1068 40.9199 50.1442C40.8026 50.1671 38.0631 50.7289 36.7749 52.8421C36.0687 54.0004 35.9347 55.364 36.3766 56.893C36.8394 58.533 37.6782 60.0425 38.8264 61.3017C36.0233 60.4908 32.4592 58.4572 32.0542 53.3488C32.0442 53.1668 31.9832 52.9914 31.8782 52.8424C31.7555 52.675 31.5795 52.5545 31.3791 52.5007C31.1787 52.4468 30.966 52.4629 30.7759 52.5462C30.7173 52.5723 25.0441 55.1499 26.0626 62.3632C24.8966 62.9268 22.6858 64.3116 22.0594 66.9121C21.4363 69.5 22.5685 72.4932 25.4283 75.8268C23.2708 75.7529 19.6492 74.8814 17.6373 70.2563C17.5734 70.0995 17.4691 69.9624 17.3349 69.8592C17.1765 69.742 16.9846 69.6791 16.7875 69.6796C16.5905 69.6801 16.3989 69.7441 16.2411 69.8621C14.8262 70.9252 12.7808 73.9383 14.8922 77.8696C14.5989 79.8232 14.5127 82.6093 15.5816 85.3474C17.0112 89.0091 20.0507 91.4677 24.6151 92.6548C25.5573 92.9036 26.5276 93.0308 27.5021 93.0334C30.2134 93.0268 32.8241 92.0064 34.8213 90.1727C34.9503 90.042 35.0368 89.8753 35.0695 89.6946C35.1022 89.5138 35.0796 89.3274 35.0046 89.1597C34.9296 88.9921 34.8058 88.8509 34.6493 88.7548C34.4928 88.6586 34.3109 88.612 34.1274 88.6209C34.0559 88.6241 27.786 88.8798 24.8336 85.1433C28.2337 85.9842 31.7968 85.9007 35.1538 84.9013C36.9574 85.6414 38.8711 86.0774 40.8173 86.1916C43.0117 86.3323 45.2119 86.0309 47.2876 85.3052C49.3633 84.5795 51.2721 83.4444 52.9008 81.9671C55.766 82.4892 58.7035 82.47 61.5616 81.9105C66.006 81.0073 71.8622 78.2156 74.7392 70.0835C77.3345 69.0532 79.6785 67.4783 81.6133 65.4649C84.7322 62.2392 88.1855 56.3707 87.0999 46.654C88.3266 45.498 91.9015 41.5515 90.7086 35.776C90.6649 35.5377 90.5318 35.3251 90.3364 35.1819C90.141 35.0387 89.8983 34.9756 89.6579 35.0056C89.5361 35.0254 89.4197 35.0698 89.3155 35.1359C89.2114 35.2021 89.1218 35.2886 89.0521 35.3904C88.9824 35.4922 88.9341 35.6071 88.9101 35.7281C88.8861 35.8491 88.8869 35.9738 88.9125 36.0944C90.1201 41.799 85.7518 45.4285 85.5671 45.5786C85.4459 45.6761 85.3517 45.803 85.2934 45.9472C85.235 46.0913 85.2146 46.2481 85.234 46.4024C86.1647 53.8215 84.5255 59.7876 80.3617 64.1359C78.5226 66.0773 76.2615 67.5695 73.7533 68.4971C73.7431 68.5 73.7346 68.5062 73.724 68.5097C73.7135 68.5132 73.697 68.5158 73.6838 68.5211C70.2881 69.7213 66.7419 70.443 63.1472 70.6653C62.9111 70.675 62.6872 70.7725 62.5192 70.9387C62.3513 71.1049 62.2516 71.3279 62.2396 71.5639C62.2376 71.6848 62.2598 71.8048 62.3047 71.9171C62.3496 72.0294 62.4164 72.1316 62.5012 72.2178C62.586 72.304 62.6871 72.3725 62.7986 72.4193C62.9101 72.466 63.0298 72.4902 63.1507 72.4902C63.1702 72.4902 63.1898 72.4896 63.2094 72.4885C66.3489 72.2873 69.4562 71.7365 72.4736 70.8463C70.2877 75.9036 66.5257 79.0208 61.2581 80.11C58.482 80.6591 55.6247 80.6531 52.851 80.0924C52.7045 80.0565 52.5514 80.0575 52.4054 80.0952C52.2594 80.133 52.125 80.2064 52.0143 80.3088C44.4448 87.3109 35.979 83.2879 35.6239 83.114C35.4171 83.0114 35.179 82.9914 34.9579 83.058C29.8211 84.599 25.7866 83.7286 23.2984 82.7204C23.1811 82.6695 23.0545 82.6431 22.9266 82.6428C22.7986 82.6426 22.672 82.6685 22.5544 82.719C22.3445 82.813 22.1778 82.9828 22.0875 83.1943C21.9973 83.4059 21.9901 83.6437 22.0674 83.8603C23.7342 88.5153 28.3927 89.898 31.4369 90.2962C29.4578 91.2586 27.1964 91.4696 25.0734 90.8897C16.2895 88.605 16.0825 81.7404 16.7408 77.852C16.7767 77.6436 16.7384 77.4292 16.6326 77.2461C15.2321 74.8517 15.8722 73.1233 16.5446 72.1662C20.2944 78.9147 27.4895 77.5083 27.5669 77.4913C27.7776 77.4472 27.966 77.3301 28.0989 77.1607C28.2317 76.9912 28.3005 76.7803 28.293 76.5652C28.2802 76.3285 28.1795 76.1051 28.0106 75.9388C24.7427 72.5788 23.2993 69.6091 23.8362 67.3496C24.2283 65.6992 25.6086 64.6872 26.5262 64.1808C27.1669 65.7743 29.6932 69.2182 33.8365 71.1014C33.9553 71.1501 34.0826 71.1746 34.2109 71.1734C34.3392 71.1723 34.4661 71.1456 34.5839 71.0948C34.7018 71.044 34.8084 70.9703 34.8974 70.8778C34.9863 70.7853 35.056 70.676 35.1022 70.5563C35.1433 70.4479 35.1621 70.3324 35.1574 70.2166C35.1528 70.1008 35.1248 69.9872 35.0751 69.8825C35.0255 69.7778 34.9552 69.6842 34.8685 69.6073C34.7818 69.5305 34.6804 69.4719 34.5705 69.4352C28.3783 67.2238 25.094 59.0337 30.4328 54.9042C32.1043 63.555 42.1422 63.6605 42.2489 63.6605C42.459 63.6599 42.6625 63.5868 42.8249 63.4535C42.9873 63.3203 43.0988 63.135 43.1404 62.9291C43.1821 62.7231 43.1514 62.5091 43.0535 62.3232C42.9556 62.1373 42.7965 61.9909 42.6032 61.9087C42.4694 61.85 39.3126 60.4624 38.1347 56.3857C37.8373 55.3564 37.9024 54.5089 38.3341 53.7972C38.8066 53.1039 39.479 52.5709 40.2619 52.2691C40.4099 53.6312 41.0306 54.8983 42.0161 55.8502C43.7536 57.5044 46.7116 58.2129 50.8068 57.956C61.2818 57.2994 68.1124 52.9034 71.9983 49.3313C72.3899 48.9698 72.6432 48.4831 72.7146 47.9549C72.7859 47.4267 72.6708 46.8902 72.3891 46.4378C72.1074 45.9853 71.6767 45.6453 71.1713 45.4763C70.6658 45.3073 70.1172 45.3198 69.62 45.5118C66.2123 46.7878 62.6946 47.748 59.1112 48.3803C63.7721 46.2482 68.228 43.6936 72.4229 40.7486L72.5235 40.6659C72.9691 40.245 73.3863 39.7951 73.7724 39.319C74.1591 38.8477 74.3838 38.2643 74.413 37.6553C74.4423 37.0463 74.2746 36.4441 73.9349 35.9378C73.5871 35.3996 73.0812 34.9822 72.4866 34.743C71.8921 34.5038 71.2381 34.4546 70.6144 34.6021C69.9208 34.8045 69.2584 35.1015 68.6459 35.4848C52.3853 44.9077 41.7765 45.944 35.7403 45.1543C30.9357 44.5256 28.122 42.5256 26.9995 41.5474C26.568 41.1784 26.0653 40.9018 25.5227 40.7348C21.7298 39.5275 19.7208 37.4114 20.078 34.5385C20.2172 33.5422 20.5849 32.5917 21.1524 31.7611C25.4139 25.3683 31.4067 22.0218 35.8494 20.3148C32.7996 22.5766 29.2091 25.9402 27.0892 30.3283C26.7444 31.044 26.5617 31.8269 26.5542 32.6213C26.5468 33.4157 26.7147 34.2019 27.046 34.924C27.3773 35.646 27.8638 36.286 28.4709 36.7984C29.078 37.3108 29.7906 37.6829 30.558 37.8882C35.2655 39.1325 43.7805 39.3768 57.6113 33.4708C67.7688 29.133 73.0402 25.9557 75.2354 22.8461C75.8113 22.0281 76.1637 21.074 76.258 20.0781C76.3523 19.0822 76.1851 18.0789 75.7729 17.1674C75.1513 15.8153 74.052 14.7407 72.6862 14.1499C69.8693 12.8939 64.6773 11.2843 57.6148 12.0578C67.2544 7.92043 78.0004 9.44355 82.2162 14.3727C85.2123 17.8759 84.3569 22.4514 79.8115 27.2563C79.7978 27.2709 79.7843 27.2856 79.7717 27.3014L79.7057 27.3812C79.2823 27.8786 79.0602 28.5163 79.0831 29.1691C79.106 29.8219 79.3722 30.4425 79.8294 30.909C80.3019 31.391 80.9341 31.6838 81.6073 31.7324C82.2805 31.781 82.9483 31.582 83.485 31.1729C85.0269 30.0248 86.3958 28.4554 87.6673 26.378C87.7575 26.2242 87.8951 26.1038 88.0594 26.0348C88.2238 25.9658 88.4061 25.9519 88.579 25.9953C88.7432 26.0278 88.892 26.1139 89.002 26.2401C89.112 26.3662 89.177 26.5253 89.1869 26.6924C89.3042 27.9583 88.7274 29.6597 87.5228 31.6136L87.5222 31.6139Z" fill="white"/>
<path d="M52.2027 63.1204C52.1579 63.3161 52.1789 63.521 52.2625 63.7035C52.346 63.886 52.4875 64.0359 52.6649 64.1298C52.8945 64.2512 56.7627 66.2441 62.9144 66.2441C66.1154 66.2307 69.2948 65.7189 72.3382 64.7271C84.1449 60.9483 82.5256 50.7331 82.508 50.6304C82.4792 50.4624 82.4038 50.3058 82.2904 50.1784C82.1771 50.0511 82.0303 49.9581 81.8667 49.91C81.7031 49.8619 81.5293 49.8606 81.365 49.9063C81.2008 49.952 81.0526 50.0429 80.9374 50.1686C70.3805 61.6548 53.2297 62.4064 53.0578 62.4128C52.8573 62.4202 52.6648 62.4936 52.5102 62.6215C52.3556 62.7495 52.2475 62.9248 52.2027 63.1204ZM80.7588 52.9529C80.5418 55.735 79.0747 60.6565 71.7825 62.9905C65.6619 64.9497 60.569 64.5154 57.3301 63.7823C62.9341 62.9028 73.0136 60.3437 80.7588 52.9529Z" fill="white"/>
<path d="M36.2288 7.42885C32.7685 7.69541 25.7813 9.31091 17.8818 17.1353C11.7802 23.1789 10.1762 29.1878 9.90549 33.166C9.60902 37.5157 10.7788 40.4151 10.8286 40.5362C10.9087 40.7307 11.0535 40.8915 11.2386 40.9915C11.4236 41.0914 11.6376 41.1243 11.8441 41.0845C12.0507 41.0448 12.2371 40.9348 12.3718 40.7733C12.5066 40.6118 12.5813 40.4087 12.5834 40.1983C12.6189 36.7225 14.323 30.6561 19.0085 24.9993C25.8033 16.7958 36.3423 13.7645 40.5586 12.8422C40.9553 12.7548 41.3192 12.557 41.6083 12.2716C41.8974 11.9862 42.0998 11.6249 42.1923 11.2293C42.2848 10.8338 42.2635 10.4201 42.1309 10.0362C41.9984 9.65218 41.7599 9.31353 41.4431 9.05931C39.9766 7.87063 38.1112 7.28735 36.2288 7.42885ZM40.3011 10.4804C40.3514 10.5186 40.3892 10.5709 40.4098 10.6306C40.4304 10.6903 40.4328 10.7548 40.4167 10.8159C40.4042 10.8767 40.3739 10.9325 40.3297 10.9761C40.2855 11.0197 40.2293 11.0493 40.1683 11.061C34.7025 12.2569 24.503 15.5066 17.6038 23.8363C14.9282 27.0205 12.9148 30.7066 11.6814 34.6786C11.6782 34.2079 11.6928 33.7108 11.731 33.1938C12.1189 27.8996 14.62 22.9325 19.1648 18.4309C26.6505 11.0164 33.1568 9.49419 36.369 9.24698C36.51 9.23584 36.6508 9.23037 36.7916 9.23056C38.0697 9.23422 39.3084 9.67527 40.3011 10.4804Z" fill="white"/>
</svg>
