<svg width="321" height="446" viewBox="0 0 321 446" fill="none" xmlns="http://www.w3.org/2000/svg">
<rect x="0.730469" y="0.478516" width="320.112" height="444.558" rx="17" fill="black"/>
<path d="M55.9269 325.296C55.9515 325.874 56.199 326.42 56.6178 326.82C57.0367 327.22 57.5944 327.444 58.1748 327.444H58.272C58.8686 327.419 59.4306 327.159 59.8345 326.72C60.2384 326.282 60.4512 325.702 60.4259 325.107C60.4114 324.771 59.0992 291.232 68.1563 265.541C71.4127 256.269 73.9955 246.777 75.8847 237.136C80.7838 242.044 88.4709 246.263 100.475 248.175C107.727 249.56 114.703 252.12 121.125 255.754C135.341 263.76 144.355 275.517 147.917 290.698C147.985 290.985 148.108 291.256 148.28 291.495C148.453 291.735 148.671 291.938 148.922 292.093C149.173 292.249 149.452 292.353 149.744 292.401C150.036 292.449 150.334 292.439 150.622 292.372C150.91 292.305 151.182 292.182 151.422 292.01C151.662 291.839 151.866 291.621 152.022 291.371C152.178 291.121 152.283 290.842 152.331 290.551C152.379 290.261 152.369 289.963 152.302 289.676C147.477 269.114 133.81 257.71 123.194 251.765C116.348 247.888 108.901 245.177 101.16 243.743C85.1356 241.189 75.6002 234.144 72.809 222.795C72.1788 219.998 72.1185 217.104 72.6317 214.284C73.1449 211.463 74.2212 208.774 75.7967 206.376C83.1342 194.856 96.083 190.809 103.328 189.411C103.364 189.94 103.434 190.467 103.536 190.987C97.978 194.477 94.8517 199.919 93.1834 204.004C90.9802 209.196 90.4991 214.953 91.8101 220.436C95.7413 236.163 112.401 240.474 113.967 240.844C134.529 247.21 148.467 260.177 155.393 279.386C158.55 288.171 160.005 297.472 159.68 306.797C159.675 306.856 159.673 306.915 159.673 306.975V325.203C159.668 325.501 159.722 325.797 159.833 326.074C159.944 326.351 160.109 326.603 160.318 326.815C160.528 327.027 160.778 327.196 161.054 327.311C161.329 327.427 161.625 327.486 161.924 327.486C162.223 327.486 162.519 327.427 162.795 327.311C163.071 327.196 163.32 327.027 163.53 326.815C163.74 326.603 163.905 326.351 164.016 326.074C164.126 325.797 164.181 325.501 164.176 325.203V307.054C164.488 299.594 163.683 292.129 161.788 284.905C161.792 284.885 161.8 284.866 161.803 284.846C162.747 278.765 164.027 272.74 165.638 266.799C171.576 244.941 167.769 223.396 166.946 219.299C166.918 219.165 166.877 219.033 166.824 218.907C166.857 218.224 166.874 217.521 166.885 216.811C179.397 233.587 173.695 261.486 170.418 273.383C169.139 278.04 168.492 282.847 168.495 287.676V325.199C168.49 325.497 168.545 325.793 168.655 326.07C168.766 326.347 168.931 326.599 169.141 326.811C169.351 327.024 169.6 327.192 169.876 327.307C170.152 327.423 170.448 327.482 170.747 327.482C171.046 327.482 171.342 327.423 171.617 327.307C171.893 327.192 172.143 327.024 172.353 326.811C172.562 326.599 172.727 326.347 172.838 326.07C172.949 325.793 173.003 325.497 172.998 325.199V287.676C172.995 283.249 173.588 278.841 174.76 274.571C177.211 265.787 178.644 256.752 179.031 247.643C184.861 252.931 192.099 256.429 199.876 257.718C199.117 260.651 198.718 263.665 198.689 266.695C198.68 267.29 198.909 267.864 199.326 268.291C199.742 268.717 200.311 268.962 200.908 268.971H200.941C201.532 268.971 202.1 268.739 202.521 268.325C202.942 267.911 203.183 267.349 203.192 266.759C203.281 260.61 204.894 256.781 204.928 256.702C204.932 256.692 204.934 256.681 204.938 256.671C204.943 256.66 204.952 256.645 204.957 256.631C205.414 255.43 206.16 254.36 207.129 253.513C207.901 252.852 208.808 252.366 209.788 252.092C210.768 251.817 211.797 251.76 212.801 251.923C213.919 252.093 214.986 252.501 215.931 253.119C216.876 253.737 217.676 254.551 218.276 255.505C218.996 256.665 219.524 257.934 219.84 259.261C209.908 276.237 214.969 323.416 215.193 325.447C215.258 326.039 215.557 326.58 216.022 326.952C216.488 327.325 217.083 327.497 217.677 327.433C218.27 327.368 218.814 327.07 219.187 326.606C219.561 326.142 219.734 325.549 219.669 324.957C219.632 324.617 217.089 300.944 218.824 281.557H225.039C226.091 292.826 227.091 309.111 226.246 325.084C226.215 325.678 226.422 326.26 226.822 326.703C227.221 327.145 227.78 327.411 228.377 327.442H228.497C229.073 327.441 229.627 327.22 230.045 326.825C230.463 326.429 230.713 325.889 230.743 325.315C231.592 309.271 230.612 292.957 229.561 281.553H232.419C233.362 283.026 234.749 284.164 236.382 284.802C236.457 307.811 236.34 325.011 236.339 325.182C236.335 325.777 236.568 326.349 236.987 326.773C237.406 327.196 237.976 327.437 238.573 327.442H238.589C239.183 327.442 239.753 327.208 240.174 326.791C240.596 326.374 240.835 325.807 240.84 325.215C240.84 325.042 240.956 308.115 240.885 285.375C240.885 285.375 249.076 285.356 249.306 285.34C249.261 302.382 249.081 315.766 248.769 325.125C248.759 325.419 248.807 325.713 248.911 325.989C249.015 326.265 249.173 326.518 249.375 326.733C249.577 326.948 249.819 327.121 250.089 327.243C250.358 327.365 250.649 327.433 250.944 327.442H251.02C251.604 327.442 252.165 327.215 252.584 326.811C253.004 326.406 253.249 325.854 253.269 325.273C253.591 315.61 253.774 301.698 253.812 283.934C255.328 283.038 256.584 281.764 257.456 280.238C258.329 278.712 258.789 276.986 258.792 275.229V262.904C258.789 261.137 258.324 259.401 257.442 257.869C256.559 256.336 255.29 255.06 253.76 254.167C253.622 226.361 253.284 199.783 253.092 186.339C253.052 182.409 253.734 178.506 255.104 174.821C258.898 164.081 261.697 153.017 263.466 141.769C263.544 141.237 263.427 140.694 263.137 140.24C256.611 130.048 242.111 120.355 241.495 119.947C241.073 119.668 240.569 119.538 240.064 119.579C239.559 119.62 239.082 119.829 238.712 120.173C224.757 133.14 221.684 153.483 221.562 154.342C221.485 154.879 221.605 155.426 221.901 155.881C226.264 162.605 234.023 168.1 237.433 170.315L236.37 172.848C234.78 176.661 234.074 180.782 234.303 184.905C235.214 200.993 235.839 224.039 236.162 253.411C234.309 254.201 232.808 255.636 231.939 257.447H224.021C223.584 255.919 222.934 254.459 222.091 253.109C221.146 251.61 219.887 250.331 218.4 249.36C216.914 248.389 215.235 247.749 213.478 247.483C211.833 247.23 210.154 247.332 208.553 247.784C206.952 248.236 205.468 249.027 204.202 250.103C203.114 251.037 202.204 252.157 201.514 253.412C192.895 252.197 184.998 247.943 179.257 241.421C179.177 241.332 179.089 241.25 178.995 241.176C178.462 229.668 175.293 217.985 166.634 209.742C166.596 209.284 166.568 208.832 166.521 208.362C166.313 206.078 165.751 203.84 164.854 201.727C163.266 198.056 161.289 196.415 159.5 195.758C159.207 191.19 158.577 186.651 157.616 182.176C179.425 185.249 193.378 180.095 201.497 174.841C211.579 168.323 215.135 160.339 215.282 160.002C215.421 159.682 215.484 159.334 215.464 158.986C215.445 158.637 215.345 158.298 215.171 157.996C214.997 157.693 214.755 157.435 214.464 157.241C214.173 157.048 213.841 156.925 213.493 156.882C195.639 154.679 175.672 154.822 159.208 155.632C158.568 150.457 156.868 145.468 154.214 140.974C151.56 136.48 148.009 132.578 143.78 129.508C136.211 123.86 127.541 121.135 121.6 119.844C119.271 119.346 116.848 119.526 114.619 120.363C112.39 121.201 110.45 122.66 109.031 124.567C101.413 134.786 95.4411 137.543 91.7726 138.057C88.2678 138.547 86.3249 137.101 86.2717 137.061C85.9235 136.777 85.498 136.604 85.0501 136.563C84.6021 136.522 84.1522 136.616 83.7583 136.833C83.3644 137.049 83.0446 137.379 82.8402 137.778C82.6357 138.177 82.5559 138.628 82.6111 139.073C82.8025 140.657 83.1202 142.223 83.5613 143.757C84.1768 145.895 85.2866 147.859 86.8015 149.492C88.3164 151.125 90.1943 152.381 92.2845 153.16C94.4102 153.973 96.6975 154.279 98.9632 154.053C101.229 153.827 103.41 153.075 105.332 151.858C107.224 150.672 108.853 149.763 110.142 149.091L109.49 160.608C104.067 161.459 99.1673 162.362 95.0028 163.285C71.531 168.484 61.6487 165.548 61.5659 165.523C61.1035 165.372 60.6045 165.374 60.1437 165.53C59.6829 165.685 59.285 165.985 59.0096 166.385C58.7341 166.785 58.596 167.263 58.6158 167.747C58.6357 168.232 58.8124 168.697 59.1196 169.073C68.2818 180.279 79.5453 183.737 89.9591 183.737C94.8661 183.694 99.7462 183.009 104.474 181.7C104.12 182.705 103.848 183.737 103.662 184.785C96.014 186.095 80.6577 190.367 71.9916 203.968C70.0919 206.877 68.7979 210.137 68.1865 213.554C67.5751 216.971 67.6586 220.475 68.4323 223.859C69.1808 226.939 70.4402 229.872 72.1585 232.538C70.2678 243.247 67.5085 253.786 63.9077 264.05C54.5582 290.572 55.8665 323.89 55.9269 325.296ZM223.502 261.936H231.119V277.068H219.323C220.122 271.011 221.438 265.65 223.502 261.936ZM226.16 154.158C226.851 150.461 230.234 135.197 240.488 124.719C244.192 127.352 253.871 134.615 258.88 141.961C258.309 145.504 255.828 159.757 250.875 173.285C249.316 177.483 248.542 181.929 248.591 186.405C248.779 199.615 249.11 225.516 249.248 252.794C249.036 252.781 248.826 252.762 248.61 252.762H240.658C240.33 223.608 239.708 200.7 238.799 184.656C238.607 181.211 239.197 177.768 240.526 174.583L242.199 170.593C247.509 163.631 250.275 155.071 250.04 146.329C249.928 143.202 248.577 140.248 246.283 138.113L244.057 136.024C243.722 135.71 243.298 135.506 242.843 135.439C242.388 135.371 241.923 135.445 241.511 135.649C240.873 135.965 235.219 139.075 232.996 150.814C232.89 151.397 233.019 151.999 233.355 152.487C233.692 152.976 234.209 153.312 234.794 153.422C235.379 153.532 235.983 153.407 236.475 153.074C236.968 152.742 237.308 152.228 237.422 151.646C238.637 145.228 240.978 142.024 242.379 140.614L243.196 141.381C244.615 142.713 245.456 144.544 245.54 146.485C245.887 155.957 241.751 163.329 239.676 166.404C236.583 164.373 230.033 159.677 226.16 154.158ZM235.622 260.996C235.623 260.003 236.019 259.05 236.724 258.348C237.429 257.646 238.385 257.25 239.381 257.249H248.614C250.119 257.251 251.562 257.847 252.625 258.908C253.689 259.968 254.288 261.406 254.289 262.906V275.233C254.288 276.733 253.689 278.171 252.625 279.231C251.562 280.291 250.119 280.888 248.614 280.889H239.38C238.384 280.888 237.428 280.493 236.724 279.791C236.019 279.089 235.622 278.136 235.621 277.143L235.622 260.996ZM161.295 265.628C160.382 268.991 159.578 272.41 158.869 275.852C153.36 261.925 141.36 244.596 115.226 236.533C115.17 236.515 115.113 236.5 115.057 236.488C114.902 236.453 99.5583 232.853 96.1822 219.349C95.105 214.789 95.5166 210.006 97.3571 205.695C98.7047 202.394 101.15 198.067 105.328 195.19C105.719 195.724 106.173 196.207 106.682 196.631C107.595 197.379 108.665 197.916 109.812 198.202C108.86 199.693 108.123 201.309 107.621 203.004C106.85 205.668 106.632 208.462 106.981 211.213C107.33 213.964 108.237 216.616 109.649 219.006C111.792 222.631 114.635 225.796 118.015 228.318C118.297 228.531 118.625 228.675 118.973 228.739C119.322 228.802 119.68 228.783 120.019 228.682C121.467 228.192 122.8 227.416 123.939 226.4C129.985 236.874 139.55 244.883 150.945 249.011C151.252 249.121 151.579 249.164 151.904 249.136C152.229 249.108 152.544 249.01 152.827 248.849C153.272 248.595 160.202 244.482 164.168 233.228C164.734 241.92 164.527 253.73 161.294 265.626L161.295 265.628ZM162.044 208.809C164.4 232.734 154.422 242.133 151.412 244.394C133.295 237.359 126.497 221.564 126.432 221.408C126.267 221.01 125.99 220.668 125.636 220.423C125.281 220.177 124.863 220.039 124.432 220.023H124.35C123.932 220.023 123.522 220.139 123.167 220.358C122.811 220.577 122.524 220.891 122.337 221.263C121.744 222.393 120.83 223.322 119.709 223.935C117.244 221.925 115.156 219.495 113.541 216.759C112.438 214.899 111.726 212.834 111.45 210.691C111.173 208.548 111.338 206.371 111.934 204.293C112.405 202.679 113.158 201.16 114.158 199.806C116.436 203.82 121.441 210.384 129.81 210.384C138.033 210.384 142.853 206.239 145.449 202.762C146.145 201.854 147.043 201.12 148.073 200.618C149.103 200.115 150.235 199.858 151.382 199.867H157.341C158.909 199.867 160.131 202.151 160.72 203.512C161.432 205.198 161.878 206.984 162.043 208.807L162.044 208.809ZM153.436 184.097C152.516 184.363 151.611 184.675 150.723 185.033C150.172 185.264 149.736 185.703 149.51 186.254C149.285 186.805 149.288 187.423 149.519 187.971C149.75 188.52 150.191 188.955 150.744 189.18C151.297 189.405 151.917 189.402 152.467 189.171C152.478 189.167 153.174 188.881 154.217 188.553C154.536 190.723 154.786 192.998 154.967 195.38H151.382C149.533 195.371 147.708 195.791 146.05 196.607C144.393 197.422 142.948 198.611 141.831 200.079C139.852 202.731 136.159 205.892 129.806 205.892C121.165 205.892 116.97 195.38 116.892 195.181C116.73 194.662 116.371 194.226 115.892 193.965C115.413 193.705 114.851 193.64 114.325 193.785C112.205 194.23 110.602 194.026 109.563 193.18C108.109 191.997 107.804 189.603 107.81 188.753C107.744 185.773 108.552 182.839 110.136 180.31C111.307 180.062 112.484 179.843 113.667 179.642C115.157 181.587 116.356 183.738 117.226 186.026C117.626 187.1 118.333 188.032 119.259 188.71C120.184 189.388 121.289 189.781 122.436 189.841C122.56 189.848 122.684 189.852 122.807 189.852C123.884 189.858 124.94 189.567 125.861 189.011C126.781 188.455 127.529 187.656 128.022 186.702C129.393 184.109 130.333 181.31 130.804 178.417C136.919 178.556 143.006 179.292 148.977 180.614C150.28 180.903 151.551 181.156 152.806 181.391C153.028 182.27 153.239 183.168 153.432 184.095L153.436 184.097ZM118.688 178.936C121.188 178.659 123.704 178.487 126.237 178.421C125.81 180.582 125.07 182.67 124.041 184.618C123.919 184.86 123.727 185.06 123.49 185.192C123.253 185.324 122.983 185.383 122.712 185.361C122.432 185.35 122.161 185.256 121.935 185.091C121.709 184.925 121.537 184.696 121.443 184.433C120.713 182.512 119.788 180.669 118.684 178.934L118.688 178.936ZM66.9315 170.77C72.5968 171.098 82.0198 170.758 95.9799 167.666C102.915 166.13 111.947 164.643 122.096 163.367C122.689 163.292 123.227 162.986 123.594 162.516C123.96 162.046 124.123 161.45 124.049 160.859C123.974 160.269 123.667 159.732 123.195 159.367C122.723 159.002 122.125 158.839 121.533 158.914C118.96 159.237 116.457 159.575 114.042 159.922L114.85 145.672L115.033 144.363C115.278 142.597 115.133 140.8 114.609 139.096C114.525 138.811 114.385 138.546 114.197 138.315C114.009 138.085 113.777 137.894 113.514 137.753C113.252 137.613 112.964 137.526 112.667 137.497C112.371 137.468 112.071 137.499 111.787 137.586C111.502 137.673 111.237 137.816 111.008 138.006C110.779 138.196 110.591 138.43 110.453 138.693C110.315 138.956 110.231 139.244 110.206 139.54C110.18 139.836 110.214 140.134 110.305 140.417C110.636 141.493 110.728 142.628 110.573 143.743L110.552 143.894C107.924 145.113 105.38 146.505 102.938 148.059C101.604 148.905 100.091 149.427 98.5182 149.584C96.9459 149.741 95.3584 149.529 93.8832 148.964C92.4478 148.43 91.1579 147.568 90.1169 146.448C89.0758 145.327 88.3125 143.979 87.8881 142.512C87.8795 142.483 87.8716 142.455 87.8637 142.427C89.278 142.689 90.7247 142.728 92.1511 142.543C98.8 141.724 105.697 136.579 112.652 127.252C113.554 126.039 114.787 125.109 116.205 124.575C117.623 124.041 119.165 123.925 120.647 124.24C132.097 126.729 151.452 134.142 154.701 155.888C151.818 156.056 149.064 156.241 146.487 156.433C145.899 156.486 145.355 156.768 144.973 157.218C144.591 157.667 144.401 158.248 144.445 158.836C144.49 159.423 144.764 159.97 145.209 160.358C145.654 160.745 146.234 160.943 146.824 160.909C163.723 159.648 187.956 158.682 209.557 160.96C206.716 165.08 203.06 168.579 198.814 171.242C186.755 178.92 169.862 180.647 149.961 176.234C134.725 172.797 118.875 173.142 103.804 177.238C88.783 181.405 76.4137 179.228 66.9315 170.77Z" fill="white"/>
<path d="M142.73 185.444C141.663 185.17 140.576 184.977 139.479 184.866C139.182 184.835 138.883 184.862 138.598 184.947C138.313 185.032 138.047 185.173 137.816 185.36C137.586 185.548 137.395 185.78 137.255 186.042C137.115 186.304 137.028 186.59 137 186.886C136.972 187.181 137.003 187.479 137.091 187.763C137.18 188.046 137.323 188.309 137.514 188.537C137.705 188.765 137.94 188.952 138.204 189.089C138.468 189.226 138.757 189.309 139.053 189.334C139.888 189.42 140.716 189.565 141.53 189.77C142.105 189.927 142.72 189.851 143.238 189.557C143.757 189.263 144.138 188.777 144.297 188.204C144.456 187.631 144.38 187.018 144.086 186.501C143.793 185.983 143.305 185.603 142.73 185.444Z" fill="white"/>
<path d="M215.098 204.954V198.356H221.717V191.758H215.098V185.162H208.479V191.758H201.859V198.356H208.479V204.954H215.098Z" fill="white"/>
<path d="M191.93 216.086H199.376V222.271H191.93V216.086Z" fill="#FDFEFE"/>
<path d="M211.787 229.693H219.234V235.878H211.787V229.693Z" fill="#FDFEFE"/>
</svg>
