<svg width="143" height="200" viewBox="0 0 143 200" fill="none" xmlns="http://www.w3.org/2000/svg">
<rect x="0.0742188" y="0.744141" width="142.887" height="198.436" rx="5.68872" fill="black"/>
<path d="M59.2478 85.2486H64.7383L61.6234 118.936C61.3914 118.882 61.1303 118.819 60.8474 118.748C60.6037 118.69 60.3471 118.731 60.1331 118.861C59.9191 118.991 59.765 119.2 59.704 119.443C59.643 119.686 59.68 119.943 59.8071 120.159C59.9342 120.375 60.1412 120.532 60.3832 120.596C61.399 120.851 62.14 121.005 62.2654 121.031C64.3428 121.57 67.4685 121.879 70.8496 121.879C74.2308 121.879 77.3561 121.569 79.4342 121.031C79.5596 121.005 80.3006 120.851 81.3158 120.596C81.4386 120.567 81.5545 120.514 81.6567 120.44C81.7588 120.366 81.8452 120.272 81.9108 120.164C81.9764 120.056 82.0199 119.936 82.0388 119.812C82.0577 119.687 82.0516 119.559 82.0208 119.437C81.9901 119.315 81.9353 119.199 81.8596 119.098C81.784 118.997 81.689 118.912 81.5803 118.848C81.4715 118.784 81.351 118.742 81.2259 118.725C81.1008 118.708 80.9736 118.716 80.8516 118.748C80.5686 118.819 80.3076 118.882 80.0758 118.936L76.9609 85.2486H82.4514C82.7041 85.2486 82.9464 85.1481 83.1251 84.9695C83.3038 84.7908 83.4042 84.5484 83.4043 84.2957V81.9695C83.403 80.887 82.9724 79.8492 82.2069 79.0838C81.4414 78.3183 80.4036 77.8878 79.321 77.8865H75.4596L74.3626 65.1796C75.1523 64.469 75.708 63.5357 75.9562 62.5028C76.2045 61.4699 76.1337 60.3859 75.7532 59.3941C75.3727 58.4023 74.7003 57.5492 73.8249 56.9474C72.9494 56.3456 71.9121 56.0234 70.8498 56.0234C69.7874 56.0234 68.7501 56.3456 67.8747 56.9474C66.9992 57.5492 66.3269 58.4023 65.9463 59.3941C65.5658 60.3859 65.495 61.4699 65.7433 62.5028C65.9915 63.5357 66.5472 64.469 67.3369 65.1796L66.2399 77.8862H62.3782C61.2957 77.8875 60.2578 78.318 59.4924 79.0835C58.7269 79.8489 58.2962 80.8867 58.2949 81.9692V84.2954C58.2949 84.5482 58.3953 84.7906 58.574 84.9694C58.7527 85.1481 58.9951 85.2486 59.2478 85.2486ZM78.2009 119.361C75.7757 119.8 73.314 120.006 70.8496 119.975C68.3851 120.006 65.9233 119.8 63.498 119.361L66.6523 85.2486H69.897V116.476C69.897 116.729 69.9974 116.971 70.1761 117.15C70.3548 117.329 70.5972 117.429 70.8499 117.429C71.1026 117.429 71.345 117.329 71.5237 117.15C71.7024 116.971 71.8028 116.729 71.8028 116.476V85.2486H75.0475L78.2009 119.361ZM70.8496 57.9405C71.5115 57.9405 72.1585 58.1367 72.7088 58.5043C73.2592 58.872 73.6881 59.3946 73.9415 60.0061C74.1948 60.6175 74.2611 61.2904 74.132 61.9395C74.0029 62.5887 73.6842 63.185 73.2162 63.653C72.7483 64.121 72.152 64.4398 71.5029 64.5689C70.8537 64.6981 70.1809 64.6318 69.5694 64.3785C68.9579 64.1253 68.4352 63.6964 68.0675 63.146C67.6998 62.5957 67.5035 61.9487 67.5035 61.2869C67.5046 60.3997 67.8574 59.5492 68.4847 58.9219C69.112 58.2945 69.9625 57.9416 70.8496 57.9405ZM73.5468 77.8865H68.1525L69.1568 66.2526C70.2533 66.633 71.4459 66.633 72.5424 66.2526L73.5468 77.8865ZM60.2008 81.9695C60.2015 81.3923 60.4311 80.8389 60.8393 80.4307C61.2475 80.0226 61.8009 79.793 62.3782 79.7924H79.321C79.8983 79.7929 80.4518 80.0225 80.86 80.4306C81.2682 80.8388 81.4978 81.3923 81.4984 81.9695V83.3434H60.2008V81.9695Z" fill="white"/>
<path d="M38.2012 96.6861C38.5256 96.7795 38.8615 96.827 39.1991 96.8273C39.9867 96.8263 40.7518 96.5644 41.3748 96.0825C41.8176 95.7469 42.1748 95.3113 42.4171 94.8113C42.6595 94.3113 42.7802 93.7611 42.7694 93.2056C42.7109 89.5271 40.908 86.9501 37.694 85.9496C36.8185 85.6732 35.8703 85.7431 35.0448 86.1448C34.2192 86.5465 33.5791 87.2494 33.2562 88.1089C32.7973 89.3453 32.5508 91.2883 33.9811 93.5216C34.9416 95.0679 36.4477 96.1973 38.2012 96.6861ZM35.0413 88.7718C35.1617 88.4525 35.3769 88.1777 35.6581 87.9843C35.9393 87.791 36.273 87.6883 36.6142 87.6903C36.7882 87.6903 36.9612 87.7167 37.1272 87.7686C39.561 88.5263 40.8182 90.3655 40.8638 93.2348C40.8687 93.4926 40.8124 93.7478 40.6997 93.9797C40.5869 94.2116 40.4209 94.4135 40.2152 94.5689C40.0068 94.7306 39.763 94.8406 39.5039 94.8899C39.2448 94.9393 38.9777 94.9267 38.7244 94.853C37.4188 94.4874 36.2979 93.6451 35.5836 92.4926C34.7762 91.2316 34.5935 89.9794 35.0413 88.7718Z" fill="white"/>
<path d="M29.9346 136.958C35.0109 143.463 45.0731 144.564 51.3086 144.564C53.0907 144.572 54.8717 144.478 56.643 144.281C58.3363 144.157 60.0173 143.9 61.6707 143.514C62.1593 143.399 62.5953 143.123 62.9093 142.731C63.2233 142.34 63.3974 141.854 63.4038 141.352C63.4102 140.85 63.2485 140.36 62.9445 139.961C62.6406 139.561 62.2117 139.275 61.7262 139.147C53.8461 137.056 48.7184 133.968 46.3616 132.313C45.616 131.782 44.704 131.539 43.7933 131.627C42.8825 131.716 42.0344 132.13 41.4049 132.794C41.1576 133.053 40.8878 133.32 40.6025 133.59C40.2063 133.96 39.6966 134.184 39.1565 134.226C38.6165 134.268 38.0781 134.126 37.6294 133.822C35.7577 132.514 34.1773 130.832 32.9875 128.882C32.7192 128.452 32.3303 128.11 31.8692 127.9C31.4082 127.689 30.8953 127.619 30.3945 127.697C29.8937 127.776 29.4271 128 29.0528 128.342C28.6785 128.684 28.4131 129.128 28.2895 129.62C28.0811 130.479 28.0108 131.366 28.0811 132.247C28.2162 133.967 28.8616 135.607 29.9346 136.958ZM30.1375 130.085C30.169 129.955 30.2389 129.837 30.3382 129.747C30.4375 129.657 30.5616 129.599 30.6944 129.58C30.7317 129.574 30.7694 129.571 30.8072 129.571C30.9202 129.569 31.0318 129.597 31.1303 129.653C31.2288 129.708 31.3107 129.789 31.3675 129.887C32.6987 132.063 34.4662 133.94 36.5587 135.399C37.3675 135.944 38.3373 136.199 39.3097 136.122C40.2822 136.045 41.1997 135.64 41.9126 134.975C42.2207 134.682 42.5133 134.393 42.7825 134.111C43.0983 133.779 43.5236 133.571 43.9801 133.527C44.4367 133.483 44.8937 133.606 45.2671 133.872C48.2718 135.983 53.481 138.931 61.2389 140.989C61.3153 141.003 61.3836 141.046 61.4308 141.107C61.4781 141.169 61.5009 141.246 61.495 141.324C61.4992 141.403 61.4739 141.482 61.4239 141.544C61.3739 141.607 61.3026 141.649 61.2237 141.662C59.6611 142.026 58.0723 142.267 56.4719 142.383C56.4573 142.383 56.4427 142.386 56.4284 142.388C56.2475 142.411 38.2812 144.557 31.4383 135.785C30.5985 134.733 30.0918 133.454 29.9832 132.112C29.9269 131.433 29.979 130.749 30.1375 130.086V130.085Z" fill="white"/>
<path d="M39.8794 114.682C39.8138 114.575 39.7274 114.481 39.6254 114.407C39.5233 114.333 39.4077 114.28 39.285 114.252C39.1624 114.223 39.0352 114.218 38.9109 114.239C38.7866 114.259 38.6676 114.304 38.5608 114.371C38.454 114.438 38.3615 114.525 38.2886 114.628C38.2158 114.731 38.1641 114.847 38.1364 114.97C38.1088 115.093 38.1059 115.22 38.1277 115.344C38.1496 115.468 38.1959 115.587 38.2638 115.693C42.6415 122.692 46.9554 121.827 49.1378 120.689C49.5941 120.46 50.1052 120.363 50.6137 120.408C51.1221 120.454 51.6079 120.64 52.0164 120.946C54.1067 122.434 56.4027 123.609 58.8319 124.435C66.6044 127.197 75.091 127.197 82.8636 124.435C85.293 123.609 87.5891 122.434 89.6793 120.946C90.0878 120.64 90.5735 120.454 91.082 120.408C91.5905 120.363 92.1017 120.46 92.558 120.689C94.6705 121.79 98.854 122.667 103.14 116.15C103.208 116.046 103.256 115.929 103.279 115.806C103.303 115.683 103.302 115.556 103.277 115.434C103.251 115.311 103.202 115.195 103.132 115.091C103.061 114.988 102.971 114.899 102.867 114.83C102.762 114.762 102.645 114.714 102.522 114.691C102.399 114.667 102.273 114.668 102.15 114.693C102.028 114.719 101.912 114.768 101.808 114.838C101.705 114.909 101.616 114.999 101.547 115.103C100.725 116.353 99.6842 117.634 98.4746 118.497C98.5496 117.763 98.4547 117.02 98.1975 116.328C97.9403 115.635 97.5274 115.011 96.9909 114.503C96.334 113.886 95.5384 113.436 94.6711 113.191C91.1912 112.217 87.6283 111.567 84.0284 111.252C83.903 111.238 83.7763 111.25 83.6554 111.286C83.5345 111.322 83.422 111.381 83.3243 111.461C83.2266 111.54 83.1456 111.639 83.0862 111.75C83.0268 111.861 82.99 111.983 82.978 112.109C82.966 112.234 82.979 112.361 83.0164 112.481C83.0537 112.602 83.1145 112.713 83.1954 112.81C83.2762 112.907 83.3754 112.987 83.4873 113.045C83.5992 113.103 83.7215 113.138 83.8472 113.149C87.3287 113.453 90.7745 114.08 94.1403 115.021C94.7126 115.181 95.2382 115.475 95.6731 115.88C96.6135 116.781 96.8324 117.987 96.3282 119.467C95.3407 119.65 94.3201 119.485 93.4411 118.999C92.6679 118.606 91.8005 118.437 90.9362 118.51C90.072 118.583 89.2454 118.896 88.5493 119.413C86.6091 120.79 84.4788 121.877 82.2254 122.64C74.8667 125.254 66.8319 125.254 59.4732 122.64C57.22 121.877 55.0898 120.79 53.1497 119.413C52.4535 118.896 51.6268 118.583 50.7627 118.51C49.8985 118.437 49.0311 118.606 48.2579 118.999C47.379 119.486 46.3584 119.652 45.3705 119.47C44.8645 117.988 45.084 116.78 46.0255 115.88C46.4603 115.475 46.986 115.181 47.5584 115.021C51.4797 113.935 55.5033 113.259 59.5644 113.004C59.811 112.979 60.0379 112.859 60.1972 112.669C60.3565 112.479 60.4356 112.235 60.4176 111.987C60.3997 111.74 60.2861 111.51 60.1011 111.345C59.916 111.18 59.6741 111.094 59.4265 111.104C55.2323 111.368 51.077 112.067 47.0276 113.191C46.1601 113.436 45.3643 113.886 44.7075 114.504C44.1705 115.011 43.7574 115.636 43.5001 116.329C43.2429 117.022 43.1484 117.765 43.224 118.5C41.8993 117.554 40.7654 116.097 39.8794 114.682Z" fill="white"/>
<path d="M82.4792 107.099C82.5352 107.211 82.6128 107.311 82.7074 107.393C82.802 107.475 82.9119 107.537 83.0307 107.577C83.1494 107.616 83.2748 107.632 83.3996 107.623C83.5244 107.613 83.6462 107.58 83.758 107.524C84.5233 107.139 85.2651 106.71 85.9796 106.237C87.1444 105.467 88.6945 105.232 89.5317 106.442C89.6866 106.666 89.8398 106.902 89.9863 107.144C90.5877 108.167 91.5678 108.912 92.7145 109.219C93.8612 109.525 95.0823 109.368 96.1139 108.781C97.2918 108.112 98.3781 107.294 99.3457 106.347C99.4365 106.257 99.548 106.191 99.6704 106.155C99.7927 106.118 99.9222 106.112 100.047 106.138C100.17 106.16 100.285 106.213 100.382 106.29C100.48 106.368 100.557 106.468 100.607 106.582L100.648 106.676C100.905 107.285 101.322 107.813 101.854 108.206C102.385 108.598 103.013 108.84 103.671 108.906C104.328 108.972 104.992 108.859 105.591 108.58C106.19 108.301 106.703 107.865 107.075 107.319C107.267 107.044 107.432 106.752 107.569 106.446C107.577 106.425 107.585 106.405 107.592 106.384C107.645 106.213 107.754 106.065 107.902 105.966C108.051 105.866 108.229 105.82 108.407 105.836C108.583 105.84 108.752 105.905 108.887 106.019C109.021 106.134 109.112 106.291 109.145 106.464C109.446 107.898 109.634 109.353 109.705 110.816C109.894 114.457 108.865 118.057 106.78 121.048C104.695 124.038 101.673 126.25 98.192 127.332C92.1862 129.221 86.0101 130.519 79.7519 131.207C79.5102 131.233 79.2879 131.352 79.1306 131.537C78.9732 131.723 78.8927 131.961 78.9056 132.204C78.9185 132.447 79.0238 132.676 79.1999 132.844C79.376 133.011 79.6096 133.105 79.8528 133.107C79.8871 133.106 79.9215 133.105 79.9557 133.101C86.3382 132.4 92.637 131.076 98.7623 129.15C102.648 127.942 106.02 125.473 108.347 122.135C110.673 118.797 111.822 114.778 111.61 110.715C111.533 109.151 111.332 107.595 111.01 106.063C110.885 105.487 110.575 104.968 110.128 104.583C109.682 104.199 109.122 103.97 108.534 103.932C107.946 103.894 107.361 104.049 106.869 104.373C106.376 104.697 106.002 105.172 105.804 105.727C105.716 105.908 105.615 106.081 105.501 106.247C105.325 106.51 105.081 106.72 104.794 106.855C104.508 106.989 104.19 107.043 103.875 107.009C103.555 106.98 103.248 106.865 102.989 106.674C102.729 106.484 102.527 106.226 102.404 105.929L102.356 105.819C102.181 105.421 101.911 105.072 101.571 104.801C101.23 104.53 100.829 104.345 100.402 104.264C99.9743 104.182 99.5334 104.205 99.117 104.331C98.7005 104.457 98.3208 104.682 98.0105 104.987C97.1603 105.819 96.2059 106.537 95.1712 107.124C94.571 107.462 93.8617 107.551 93.1968 107.37C92.5318 107.19 91.9647 106.755 91.6179 106.159C91.451 105.883 91.2765 105.613 91.0994 105.358C89.7819 103.454 87.1871 103.155 84.9293 104.648C84.2776 105.079 83.601 105.47 82.903 105.821C82.6773 105.934 82.5058 106.132 82.4263 106.372C82.3469 106.612 82.3659 106.874 82.4792 107.099Z" fill="white"/>
<path d="M42.9377 129.152C49.6685 131.274 56.6095 132.66 63.639 133.285C63.6668 133.288 63.6943 133.289 63.7218 133.289C63.9673 133.289 64.2033 133.193 64.3804 133.023C64.5575 132.853 64.6622 132.622 64.6726 132.376C64.6829 132.131 64.5982 131.891 64.436 131.707C64.2739 131.522 64.0468 131.408 63.8022 131.387C56.9101 130.773 50.105 129.414 43.5059 127.334C40.0231 126.25 37.0004 124.038 34.9154 121.045C32.8304 118.052 31.8021 114.45 31.9928 110.807C32.0649 109.347 32.2521 107.895 32.5528 106.464C32.5854 106.291 32.6765 106.134 32.8107 106.02C32.945 105.905 33.1143 105.841 33.2906 105.836C33.4688 105.82 33.6471 105.866 33.7957 105.965C33.9443 106.065 34.0541 106.213 34.1067 106.384C34.1135 106.405 34.1213 106.425 34.1298 106.446C34.2663 106.752 34.4314 107.044 34.623 107.32C34.9955 107.865 35.5083 108.301 36.1074 108.58C36.7066 108.859 37.3698 108.972 38.0275 108.906C38.6852 108.84 39.313 108.599 39.845 108.206C40.3769 107.814 40.7932 107.285 41.0503 106.676L41.0909 106.582C41.141 106.468 41.2182 106.368 41.3159 106.291C41.4136 106.213 41.5287 106.161 41.6512 106.138C41.7763 106.113 41.9058 106.119 42.0282 106.155C42.1505 106.192 42.262 106.258 42.3528 106.347C43.3205 107.295 44.4069 108.113 45.5848 108.781C46.6164 109.368 47.8376 109.526 48.9844 109.219C50.1311 108.913 51.1111 108.167 51.7125 107.144C51.8587 106.902 52.0119 106.666 52.1668 106.443C52.3385 106.191 52.5623 105.979 52.8231 105.821C53.0838 105.663 53.3755 105.563 53.6783 105.527C54.0269 105.49 54.3796 105.526 54.713 105.635C55.0464 105.743 55.3531 105.921 55.6128 106.157C56.8101 107.203 58.1821 108.031 59.6663 108.602C59.7828 108.65 59.9078 108.675 60.0338 108.674C60.1598 108.673 60.2845 108.648 60.4006 108.599C60.5166 108.549 60.6218 108.478 60.7099 108.388C60.7981 108.298 60.8675 108.191 60.9141 108.074C60.9607 107.957 60.9837 107.831 60.9816 107.705C60.9795 107.579 60.9524 107.455 60.9019 107.34C60.8515 107.224 60.7786 107.12 60.6875 107.033C60.5964 106.945 60.4889 106.877 60.3713 106.832C59.092 106.342 57.9089 105.63 56.8762 104.73C56.4145 104.316 55.8705 104.004 55.2799 103.816C54.6893 103.627 54.0655 103.566 53.4494 103.635C52.8788 103.701 52.329 103.89 51.8374 104.187C51.3458 104.484 50.9238 104.883 50.6 105.358C50.4223 105.614 50.2492 105.884 50.0814 106.16C49.7346 106.755 49.1674 107.19 48.5025 107.371C47.8376 107.551 47.1284 107.463 46.5281 107.125C45.4933 106.538 44.5389 105.82 43.6889 104.987C43.3786 104.682 42.9989 104.457 42.5823 104.331C42.1658 104.205 41.7249 104.182 41.2975 104.264C40.8701 104.346 40.4689 104.53 40.1285 104.801C39.788 105.072 39.5184 105.422 39.3429 105.82L39.2961 105.93C39.1729 106.227 38.9706 106.485 38.7112 106.676C38.4518 106.866 38.1452 106.982 37.8246 107.011C37.5098 107.045 37.1919 106.991 36.9053 106.857C36.6187 106.722 36.3744 106.512 36.1988 106.249C36.0849 106.084 35.9838 105.911 35.8963 105.731C35.6983 105.175 35.3248 104.699 34.8323 104.375C34.3399 104.051 33.7552 103.896 33.1668 103.934C32.5784 103.972 32.0183 104.2 31.5713 104.584C31.1243 104.969 30.8147 105.489 30.6893 106.065C30.3678 107.594 30.1672 109.146 30.0895 110.707C29.8766 114.772 31.0242 118.792 33.3509 122.133C35.6776 125.473 39.0508 127.943 42.9377 129.152Z" fill="white"/>
<path d="M100.323 96.0824C100.946 96.5644 101.711 96.8263 102.499 96.8272C102.836 96.8269 103.172 96.7794 103.497 96.686C105.251 96.1975 106.757 95.0681 107.718 93.5215C109.148 91.2883 108.902 89.3453 108.443 88.1085C108.12 87.2491 107.479 86.5463 106.654 86.1447C105.828 85.7431 104.88 85.6732 104.004 85.9495C100.789 86.9504 98.9872 89.5271 98.9284 93.2055C98.9176 93.7611 99.0383 94.3113 99.2807 94.8113C99.5231 95.3113 99.8804 95.7469 100.323 96.0824ZM104.57 87.7691C104.98 87.6376 105.425 87.6682 105.813 87.8546C106.201 88.0411 106.503 88.3692 106.656 88.7715C107.105 89.9793 106.922 91.2315 106.113 92.4937C105.399 93.6463 104.278 94.4886 102.973 94.8541C102.719 94.9278 102.452 94.9405 102.193 94.8911C101.934 94.8417 101.69 94.7317 101.482 94.57C101.276 94.4146 101.11 94.2127 100.997 93.9809C100.884 93.749 100.828 93.4937 100.833 93.2359C100.88 90.366 102.137 88.5268 104.57 87.7691Z" fill="white"/>
<path d="M108.71 128.884C107.52 130.833 105.939 132.515 104.068 133.824C103.619 134.127 103.08 134.269 102.54 134.227C102 134.185 101.49 133.961 101.094 133.591C100.811 133.323 100.541 133.055 100.292 132.795C99.6627 132.132 98.8146 131.717 97.9039 131.629C96.9933 131.54 96.0814 131.784 95.3358 132.314C92.9795 133.969 87.8506 137.057 79.9709 139.148C79.4853 139.276 79.0565 139.563 78.7525 139.962C78.4485 140.362 78.2868 140.851 78.2931 141.353C78.2995 141.855 78.4735 142.341 78.7875 142.733C79.1015 143.124 79.5375 143.4 80.0261 143.515C81.6795 143.902 83.3605 144.158 85.0538 144.282C86.8251 144.479 88.6063 144.574 90.3885 144.566C96.6237 144.566 106.688 143.464 111.762 136.959C112.835 135.608 113.481 133.968 113.616 132.249C113.686 131.368 113.616 130.481 113.408 129.622C113.284 129.13 113.018 128.686 112.644 128.344C112.27 128.002 111.803 127.778 111.302 127.699C110.802 127.621 110.289 127.691 109.828 127.902C109.367 128.112 108.978 128.454 108.709 128.884L108.71 128.884ZM111.56 130.086C111.719 130.749 111.771 131.433 111.715 132.112C111.607 133.455 111.1 134.734 110.26 135.786C103.417 144.558 85.4511 142.411 85.2701 142.388C85.2558 142.386 85.2409 142.385 85.2266 142.384C83.6262 142.268 82.0373 142.027 80.4745 141.662C80.3956 141.649 80.3244 141.607 80.2743 141.545C80.2243 141.483 80.199 141.404 80.2032 141.324C80.1974 141.247 80.2203 141.17 80.2676 141.108C80.3149 141.046 80.3832 141.004 80.4596 140.99C88.216 138.931 93.4262 135.983 96.4311 133.873C96.7548 133.644 97.1413 133.521 97.5378 133.52C97.7955 133.52 98.0506 133.573 98.2873 133.674C98.5241 133.776 98.7377 133.925 98.9151 134.112C99.1861 134.395 99.4787 134.686 99.7851 134.975C100.498 135.641 101.415 136.046 102.388 136.123C103.36 136.2 104.33 135.945 105.139 135.399C107.231 133.94 108.999 132.063 110.33 129.887C110.397 129.774 110.498 129.683 110.618 129.629C110.738 129.574 110.872 129.557 111.002 129.58C111.135 129.599 111.259 129.657 111.359 129.748C111.458 129.838 111.528 129.956 111.56 130.087V130.086Z" fill="white"/>
<path d="M93.1721 70.4056V67.3554H96.222V64.3051H93.1721V61.2559H90.1222V64.3051H87.0723V67.3554H90.1222V70.4056H93.1721Z" fill="white"/>
<path d="M96.2012 77.4805H99.6323V80.3398H96.2012V77.4805Z" fill="white"/>
<path d="M39.4102 72.4121H42.8413V75.2714H39.4102V72.4121Z" fill="white"/>
<path d="M47.5215 80.5254H50.9526V83.3847H47.5215V80.5254Z" fill="white"/>
<path d="M69.3262 131.738H72.7573V134.598H69.3262V131.738Z" fill="white"/>
</svg>
