<svg width="143" height="200" viewBox="0 0 143 200" fill="none" xmlns="http://www.w3.org/2000/svg">
<rect x="0.0703125" y="0.744141" width="142.887" height="198.436" rx="5.68872" fill="black"/>
<path d="M86.4663 109.821C86.5699 109.88 86.6842 109.919 86.8026 109.934C86.921 109.949 87.0412 109.94 87.1563 109.909C87.2715 109.878 87.3793 109.824 87.4737 109.751C87.568 109.678 87.6471 109.587 87.7062 109.483C89.8122 105.786 90.6574 101.503 90.1142 97.2828C89.5711 93.0625 87.669 89.1337 84.6955 86.09C84.527 85.9176 84.297 85.8192 84.0559 85.8165C83.8149 85.8137 83.5827 85.9068 83.4103 86.0752C83.2379 86.2437 83.1395 86.4737 83.1368 86.7148C83.134 86.9558 83.2271 87.188 83.3956 87.3604C86.093 90.1216 87.8186 93.6857 88.3114 97.5142C88.8043 101.343 88.0377 105.228 86.1275 108.582C86.0082 108.791 85.9769 109.039 86.0404 109.272C86.104 109.504 86.2571 109.702 86.4663 109.821Z" fill="white"/>
<path d="M37.3867 141.999C44.4933 140.239 51.4269 134.714 57.9945 125.579C59.6689 123.25 61.1067 120.97 62.2751 118.973C62.4627 118.649 62.757 118.401 63.1075 118.271C63.4579 118.141 63.8427 118.137 64.1959 118.26C64.7401 118.451 65.291 118.618 65.8486 118.76C64.9222 120.969 63.842 123.109 62.6159 125.166C62.4936 125.363 62.4488 125.599 62.4901 125.827C62.5314 126.055 62.6559 126.26 62.8395 126.402C62.9417 126.476 63.0582 126.528 63.1817 126.555C63.3051 126.582 63.4328 126.583 63.5566 126.557C63.6804 126.532 63.7975 126.481 63.9006 126.408C64.0036 126.335 64.0902 126.241 64.1549 126.133C65.3468 124.136 66.4062 122.063 67.3265 119.927C67.4211 119.704 67.5854 119.516 67.795 119.393C68.0046 119.27 68.2482 119.218 68.4899 119.244C70.6363 119.486 72.8078 119.373 74.9175 118.909C74.9318 118.906 74.9467 118.902 74.9601 118.899C76.3044 118.519 77.5888 117.953 78.7757 117.216C80.1451 118.376 81.7055 119.635 83.4351 120.933C86.6335 123.333 95.2906 128.495 95.2906 128.495C85.4266 127.672 79.3053 122.076 79.2483 122.021C79.0747 121.857 78.8433 121.767 78.6041 121.772C78.365 121.777 78.1374 121.876 77.9708 122.048C77.8043 122.22 77.7121 122.45 77.7143 122.689C77.7165 122.928 77.8129 123.157 77.9826 123.326C78.2325 123.569 84.2334 129.292 95.1222 130.305C98.1586 130.597 101.149 131.253 104.029 132.259L104.036 132.237C106.065 132.941 108.138 133.514 110.24 133.953C110.302 133.966 111.164 134.056 111.314 133.247C111.361 133.011 111.313 132.766 111.181 132.565C111.048 132.364 110.842 132.223 110.607 132.173C90.6002 128.047 73.7763 110.09 73.6085 109.909C73.4447 109.732 73.2174 109.627 72.9765 109.618C72.7357 109.609 72.501 109.695 72.3241 109.859C72.1472 110.023 72.0427 110.25 72.0334 110.491C72.0241 110.732 72.1109 110.967 72.2747 111.144C72.3887 111.267 74.2075 113.219 77.3357 115.973C76.4362 116.463 75.4861 116.854 74.5021 117.139C73.2485 117.413 71.9691 117.551 70.686 117.55C68.3359 117.554 66.0087 117.087 63.8416 116.178C65.0669 113.895 65.7416 112.38 65.7708 112.261C65.7994 112.145 65.8046 112.024 65.7864 111.906C65.7681 111.787 65.7266 111.674 65.6643 111.571C65.602 111.469 65.5201 111.38 65.4233 111.309C65.3265 111.239 65.2167 111.188 65.1003 111.16C64.9432 111.125 64.7797 111.131 64.6256 111.178C64.4716 111.224 64.3323 111.31 64.2213 111.427L62.5995 113.064C52.1086 123.655 47.2957 128.432 42.0517 130.696C40.04 131.565 39.2101 129.056 39.2747 128.174C39.6568 122.977 43.1352 117.613 43.1703 117.56C43.2819 117.39 43.3332 117.187 43.3159 116.984C43.2986 116.781 43.2138 116.59 43.075 116.441C42.9362 116.293 42.7514 116.195 42.5504 116.163C42.3493 116.132 42.1435 116.169 41.966 116.269C41.5322 116.512 31.3216 122.349 28.7846 133.382C28.0793 136.448 28.494 138.851 30.1468 140.387C32.8845 142.932 36.7641 142.153 37.3867 141.999ZM30.5572 133.789C32.0614 127.246 36.6299 122.578 39.755 120.048C38.7494 122.203 37.6796 125.107 37.4636 128.041C37.3513 129.567 37.9397 131.231 39.1517 132.104C40.1794 132.843 41.5702 132.869 42.755 132.373C47.894 130.221 52.4143 125.909 61.3584 116.9C57.1535 124.34 48.3229 137.42 36.9506 140.235C35.5484 140.581 32.9196 140.564 31.4221 139.09C30.2941 137.982 30.0029 136.198 30.5572 133.789Z" fill="white"/>
<path d="M107.266 129.09C107.796 129.26 108.349 129.347 108.905 129.348C109.874 129.339 110.821 129.062 111.642 128.548C112.463 128.034 113.126 127.302 113.557 126.435C113.988 125.567 114.17 124.597 114.083 123.632C113.996 122.667 113.644 121.745 113.065 120.968C108.407 114.732 102.562 109.479 95.8656 105.512C95.6792 105.401 95.4595 105.361 95.2462 105.398C95.0328 105.436 94.8398 105.548 94.7018 105.715C94.5639 105.882 94.4901 106.093 94.4938 106.309C94.4975 106.526 94.5785 106.734 94.7221 106.896C97.2202 109.795 99.462 112.906 101.422 116.193C101.557 116.426 101.618 116.695 101.596 116.963C101.574 117.231 101.47 117.486 101.299 117.694C101.128 117.902 100.898 118.053 100.639 118.126C100.38 118.199 100.105 118.192 99.8506 118.105C95.1468 116.49 87.2737 113.789 78.1586 107.994C77.9738 107.876 77.7524 107.828 77.5352 107.861C77.3181 107.893 77.12 108.002 76.9775 108.169C76.8349 108.336 76.7576 108.549 76.7598 108.769C76.762 108.988 76.8436 109.199 76.9894 109.363C77.1142 109.504 89.6595 123.509 107.266 129.09ZM99.2607 119.824C99.8655 120.032 100.519 120.05 101.135 119.876C101.75 119.701 102.297 119.343 102.703 118.85C103.109 118.356 103.355 117.749 103.407 117.112C103.459 116.475 103.315 115.837 102.995 115.284C101.97 113.53 100.855 111.831 99.6542 110.193C104.201 113.539 108.23 117.537 111.61 122.059C112.056 122.63 112.302 123.331 112.312 124.056C112.322 124.78 112.094 125.488 111.663 126.071C111.25 126.676 110.65 127.13 109.955 127.362C109.26 127.594 108.508 127.593 107.814 127.357C97.4817 124.082 88.9296 117.813 83.7496 113.329C90.2035 116.716 95.6504 118.585 99.2607 119.824V119.824Z" fill="white"/>
<path d="M50.1727 61.1068C48.793 60.6198 47.363 61.4737 46.7781 62.5803C46.252 63.5742 46.4636 64.6233 47.3171 65.2506C54.1595 70.2766 61.4974 79.1645 61.5707 79.2546C61.7029 79.4156 61.8863 79.5263 62.0904 79.5682C62.2944 79.6101 62.5066 79.5806 62.6915 79.4848C62.8764 79.3889 63.0228 79.2324 63.1061 79.0415C63.1894 78.8506 63.2046 78.6369 63.1492 78.4361C62.9887 77.8579 59.134 64.2679 50.1727 61.1068ZM48.7585 64.0571C48.6251 63.9598 48.5291 63.8196 48.4865 63.66C48.4439 63.5004 48.4574 63.331 48.5247 63.1802C48.6661 62.8753 48.9593 62.6107 49.5679 62.82C54.5457 64.5333 57.8534 70.2169 59.6818 74.3294C56.935 71.3192 52.8304 67.1164 48.7585 64.0571Z" fill="white"/>
<path d="M45.3892 98.9112C46.6804 99.5008 48.1393 98.8197 48.5991 98.1089C48.9167 97.6157 49.0448 97.0241 48.9598 96.4437C48.8748 95.8633 48.5824 95.3333 48.1367 94.9519C41.2174 89.0601 35.9576 81.7913 32.7638 76.7308C32.4793 76.2818 32.0567 75.9373 31.5596 75.749C31.0625 75.5608 30.5178 75.5389 30.0072 75.6867C29.4966 75.8344 29.0478 76.1439 28.7281 76.5686C28.4084 76.9933 28.2352 77.5103 28.2345 78.0418C28.2248 80.2985 28.904 82.5043 30.1813 84.3648C36.3402 93.3045 42.7687 97.7142 45.3892 98.9112ZM30.5107 77.4288C30.6433 77.4027 30.7805 77.4143 30.9069 77.4624C31.0332 77.5104 31.1434 77.593 31.2251 77.7007C34.4864 82.8681 39.8634 90.2954 46.9572 96.3345C47.0714 96.432 47.1453 96.5686 47.1643 96.7176C47.1834 96.8665 47.1463 97.0173 47.0603 97.1404C46.9743 97.2635 46.8456 97.3502 46.6991 97.3836C46.5527 97.417 46.3991 97.3947 46.2682 97.3211C43.8602 95.9876 37.6179 91.9554 31.6764 83.3335C30.6087 81.7764 30.0415 79.9306 30.0506 78.0427C30.04 77.9018 30.081 77.7619 30.1659 77.6489C30.2508 77.536 30.3739 77.4578 30.5122 77.4288H30.5107Z" fill="white"/>
<path d="M66.0733 107.033C66.2694 107.173 66.5132 107.23 66.7509 107.19C66.9887 107.15 67.201 107.018 67.341 106.822C67.4811 106.626 67.5376 106.382 67.4979 106.144C67.4583 105.906 67.3258 105.694 67.1297 105.554C60.5122 100.878 54.3526 95.5853 48.7335 89.7473C48.6512 89.6609 48.5527 89.5914 48.4437 89.543C48.3346 89.4946 48.217 89.4681 48.0977 89.4651C47.9783 89.4621 47.8596 89.4827 47.7482 89.5256C47.6368 89.5685 47.535 89.6329 47.4485 89.7152C47.362 89.7974 47.2926 89.8959 47.2442 90.005C47.1957 90.1141 47.1693 90.2317 47.1663 90.351C47.1633 90.4703 47.1839 90.5891 47.2268 90.7005C47.2697 90.8118 47.3341 90.9137 47.4164 91.0002C48.7633 92.4161 50.1702 93.8182 51.637 95.2065C51.2787 96.7049 51.0976 98.2402 51.0974 99.7809C51.0873 102.436 51.6221 105.066 52.6687 107.506C53.7154 109.947 55.2516 112.147 57.1824 113.97C57.3583 114.128 57.5888 114.211 57.8249 114.202C58.061 114.192 58.2842 114.091 58.4471 113.92C58.6101 113.749 58.7001 113.521 58.6979 113.285C58.6957 113.049 58.6016 112.823 58.4355 112.655C56.6838 111.001 55.2901 109.005 54.3405 106.791C53.391 104.577 52.9058 102.191 52.915 99.782C52.9154 98.7324 53.008 97.6848 53.1918 96.6514C57.2742 100.366 61.5757 103.833 66.0733 107.033Z" fill="white"/>
<path d="M30.9307 66.8816C33.375 72.6216 36.9166 78.4339 41.4573 84.157C41.5315 84.2506 41.6234 84.3285 41.7277 84.3865C41.832 84.4445 41.9468 84.4814 42.0653 84.4951C42.1839 84.5088 42.304 84.4989 42.4188 84.4662C42.5336 84.4334 42.6408 84.3784 42.7343 84.3042C42.8278 84.23 42.9058 84.1382 42.9638 84.0338C43.0218 83.9295 43.0587 83.8148 43.0724 83.6962C43.086 83.5776 43.0762 83.4575 43.0434 83.3428C43.0107 83.228 42.9557 83.1208 42.8815 83.0273C38.443 77.4319 34.9833 71.7599 32.6033 66.1695C32.3837 65.6811 32.3403 65.1317 32.4805 64.6149C32.6208 64.0981 32.936 63.6459 33.3724 63.3356C33.7877 63.0073 34.3054 62.8359 34.8345 62.8512C35.3637 62.8665 35.8706 63.0677 36.2662 63.4194C36.698 63.7807 36.9327 64.0084 36.9385 64.0128C37.1109 64.1813 37.3432 64.2745 37.5842 64.2717C37.8252 64.269 38.0553 64.1706 38.2238 63.9982C38.3923 63.8258 38.4854 63.5936 38.4827 63.3525C38.48 63.1115 38.3816 62.8814 38.2092 62.7129C38.1981 62.7018 37.928 62.4387 37.4343 62.0254C36.7135 61.4259 35.812 61.0866 34.8748 61.062C33.9376 61.0374 33.0195 61.3291 32.2683 61.89C31.5172 62.4508 30.9767 63.2483 30.734 64.1538C30.4914 65.0594 30.5607 66.0202 30.9307 66.8816Z" fill="white"/>
<path d="M65.7563 74.3489C65.9023 74.3487 66.0461 74.3132 66.1756 74.2457C66.3051 74.1781 66.4164 74.0804 66.5002 73.9607C66.5839 73.841 66.6376 73.703 66.6567 73.5582C66.6759 73.4134 66.6599 73.2661 66.6101 73.1288C64.1602 66.3987 59.1977 61.2353 58.9875 61.0187C58.819 60.8489 58.5904 60.7523 58.3511 60.75C58.1119 60.7477 57.8814 60.8399 57.7096 61.0065C57.5379 61.173 57.4388 61.4006 57.4338 61.6398C57.4288 61.879 57.5183 62.1105 57.683 62.2841C57.7315 62.3344 62.5888 67.3955 64.903 73.7506C64.9668 73.9257 65.0828 74.0771 65.2354 74.1841C65.388 74.2911 65.5699 74.3487 65.7563 74.3489Z" fill="white"/>
<path d="M81.9928 63.7516C77.9993 67.3861 74.2876 71.3187 70.89 75.5156C70.7409 75.705 70.6732 75.9458 70.7017 76.1852C70.7302 76.4245 70.8526 76.6427 71.042 76.7918C71.2314 76.9409 71.4723 77.0086 71.7116 76.9801C71.9509 76.9516 72.1692 76.8292 72.3182 76.6398C75.6503 72.5255 79.2899 68.6701 83.2056 65.1067C83.2957 65.0275 83.3692 64.9311 83.4219 64.8232C83.4746 64.7154 83.5054 64.5982 83.5125 64.4783C83.5196 64.3585 83.5029 64.2385 83.4634 64.1251C83.4239 64.0118 83.3623 63.9074 83.2822 63.818C83.2021 63.7286 83.1051 63.6559 82.9967 63.6042C82.8884 63.5525 82.7709 63.5228 82.651 63.5168C82.5311 63.5107 82.4113 63.5285 82.2983 63.5691C82.1853 63.6096 82.0815 63.6722 81.9928 63.7531V63.7516Z" fill="white"/>
<path d="M74.0783 88.4106C73.9922 88.4945 73.9236 88.5946 73.8764 88.7052C73.8293 88.8158 73.8045 88.9346 73.8036 89.0548C73.8027 89.175 73.8257 89.2942 73.8711 89.4055C73.9166 89.5168 73.9837 89.6179 74.0685 89.7031C74.1534 89.7882 74.2543 89.8557 74.3654 89.9016C74.4765 89.9475 74.5956 89.9709 74.7158 89.9705C74.836 89.97 74.9549 89.9457 75.0657 89.899C75.1764 89.8523 75.2768 89.784 75.361 89.6982C75.4402 89.6193 83.3849 81.7413 90.9092 77.2353C90.9944 77.1798 91.0962 77.1553 91.1973 77.1659C91.2985 77.1766 91.3929 77.2217 91.4646 77.2938C91.5407 77.3593 91.5918 77.4489 91.6095 77.5477C91.6272 77.6464 91.6103 77.7483 91.5617 77.836C90.9936 79.0122 90.3009 80.1239 89.4953 81.152C89.3394 81.3313 89.2568 81.5628 89.264 81.8003C89.2712 82.0379 89.3677 82.2639 89.5342 82.4335C89.6242 82.5189 89.7308 82.585 89.8474 82.6276C89.9639 82.6703 90.088 82.6886 90.2118 82.6815C90.3358 82.6744 90.4569 82.642 90.5678 82.5862C90.6787 82.5305 90.777 82.4527 90.8566 82.3575C91.7499 81.2359 92.5175 80.0197 93.1457 78.7308C93.3783 78.2879 93.4629 77.7821 93.3871 77.2876C93.3113 76.7932 93.0791 76.336 92.7245 75.9831C92.3648 75.6356 91.9001 75.4169 91.4031 75.3612C90.906 75.3054 90.4045 75.4158 89.9768 75.675C86.8176 77.6252 83.8073 79.8068 80.9704 82.2017C80.7847 82.3556 80.5578 82.4515 80.318 82.4774C80.0782 82.5034 79.8361 82.4584 79.6217 82.3478C79.168 82.1152 78.7058 81.9008 78.235 81.7048C86.3887 75.5578 91.9107 71.6981 96.9533 69.9048C97.3579 69.7607 97.9118 69.6511 98.2497 69.9487C98.6408 70.2927 98.7729 71.1252 98.5783 72.0205C97.4818 77.0676 95.3547 81.1836 93.0902 85.3078C92.9964 85.472 92.9634 85.664 92.9971 85.85C93.0308 86.0361 93.1289 86.2044 93.2743 86.3253C93.4392 86.461 93.6414 86.5433 93.8542 86.5613C94.0669 86.5793 94.2801 86.5322 94.4655 86.4261C102.312 81.1292 107.329 72.4874 108.789 67.9712C110.209 63.5716 109.239 61.2337 108.175 60.047C106.692 58.3928 104.426 58.1613 102.8 58.4977C91.9741 60.7298 80.8021 71.8454 74.1602 79.5864C73.949 79.8305 73.6824 80.0205 73.3827 80.1403C73.083 80.2601 72.7589 80.3063 72.4376 80.2751C71.8559 80.2225 71.2701 80.195 70.6855 80.195C68.0951 80.1986 65.5311 80.7148 63.1411 81.7137C60.7511 82.7127 58.5824 84.1747 56.7599 86.0154C53.8549 82.2154 51.6486 78.9284 50.1806 76.6133C50.1407 76.56 50.1221 76.4938 50.1285 76.4275C50.1348 76.3613 50.1656 76.2997 50.2148 76.2549C50.2575 76.2036 50.3175 76.1697 50.3835 76.1597C50.4494 76.1496 50.5168 76.164 50.5729 76.2003C52.5748 77.2876 54.4804 78.5437 56.2688 79.955C56.3642 80.0351 56.475 80.0948 56.5944 80.1303C56.7139 80.1659 56.8393 80.1765 56.963 80.1616C57.0867 80.1466 57.206 80.1064 57.3135 80.0435C57.421 79.9806 57.5144 79.8962 57.588 79.7957C57.698 79.6388 57.757 79.4518 57.757 79.2602C57.757 79.0685 57.698 78.8816 57.588 78.7247C53.6313 72.8738 48.0128 68.6613 43.9953 66.1562C43.306 65.7271 42.4971 65.5306 41.6877 65.5957C40.8783 65.6607 40.1111 65.9838 39.4991 66.5175C38.8871 67.0511 38.4626 67.7671 38.2879 68.5601C38.1133 69.3532 38.1979 70.1813 38.5291 70.9226C43.6521 82.3899 52.0075 90.6827 58.1153 95.6193C64.7294 100.966 70.0632 103.572 70.2871 103.681C70.3982 103.735 70.5191 103.765 70.6425 103.771C70.7658 103.776 70.889 103.757 71.0045 103.713C71.12 103.67 71.2255 103.603 71.3143 103.517C71.4032 103.431 71.4737 103.328 71.5215 103.215C71.5915 103.037 71.6058 102.843 71.5623 102.657C71.5189 102.471 71.4198 102.303 71.2783 102.175C66.75 97.894 62.528 93.2999 58.6435 88.427C58.4293 88.1585 58.3257 87.8184 58.354 87.476C58.3822 87.1337 58.5402 86.8152 58.7955 86.5854C62.0589 83.6482 66.2923 82.0201 70.6829 82.0137C71.1506 82.0137 71.6183 82.0321 72.0833 82.0687C69.6122 85.1031 68.1462 87.1961 68.1187 87.2636C68.0436 87.4481 68.0312 87.6521 68.0834 87.8443C68.1355 88.0366 68.2494 88.2063 68.4074 88.3275C68.5655 88.4487 68.759 88.5146 68.9582 88.5151C69.1574 88.5156 69.3512 88.4507 69.5098 88.3302C70.706 87.4223 71.8575 86.5469 72.9644 85.7038C74.2038 84.7609 75.3858 83.8623 76.5218 83.0006C77.3216 83.2793 78.1005 83.6149 78.8523 84.0049C76.1055 86.3998 74.2359 88.2537 74.0783 88.4106ZM40.1897 70.181C40.0085 69.7965 39.9601 69.3626 40.0521 68.9475C40.144 68.5325 40.3711 68.1597 40.6978 67.8876C41.0555 67.5706 41.5151 67.3925 41.993 67.3857C42.3621 67.3892 42.7226 67.4976 43.0325 67.6982C46.4006 69.7754 49.5045 72.2534 52.2762 75.0778C52.0119 74.9242 51.7383 74.7683 51.4553 74.6101C51.045 74.3798 50.5694 74.2933 50.1042 74.3642C49.639 74.4351 49.2108 74.6594 48.8877 75.0015C48.5645 75.3436 48.3649 75.7838 48.3206 76.2523C48.2763 76.7208 48.3898 77.1907 48.643 77.5873C53.3677 84.9783 58.7786 91.9075 64.804 98.2828C57.745 93.5132 46.4507 84.1949 40.1897 70.181ZM80.5925 75.2374C88.8321 66.7967 96.6376 61.6234 103.166 60.2776C103.473 60.2154 103.785 60.1844 104.098 60.1849C104.602 60.1643 105.104 60.2494 105.573 60.4347C106.042 60.62 106.467 60.9015 106.821 61.2609C107.89 62.4538 107.972 64.5813 107.057 67.4132C105.888 71.0352 102.292 77.4654 96.6826 82.4107C98.0778 79.6127 99.5289 76.2029 100.353 72.407C100.699 70.8159 100.361 69.3868 99.4496 68.5844C98.9969 68.1866 97.9913 67.6064 96.3433 68.1928C90.4094 70.3029 84.0315 75.0079 73.9231 82.6913C75.7109 80.5203 77.9909 77.9041 80.5925 75.2374Z" fill="white"/>
<path d="M112.53 68.7497C112.302 68.6706 112.052 68.6849 111.835 68.7896C111.618 68.8942 111.452 69.0807 111.372 69.308C111.339 69.4016 108.002 78.7563 99.4073 86.9477C99.3188 87.0295 99.2474 87.1281 99.1973 87.2378C99.1473 87.3474 99.1195 87.4659 99.1157 87.5864C99.1119 87.7069 99.1321 87.8269 99.1751 87.9395C99.2181 88.0521 99.2831 88.155 99.3662 88.2423C99.4494 88.3295 99.5491 88.3994 99.6595 88.4477C99.77 88.496 99.8889 88.5219 100.009 88.5239C100.13 88.5258 100.25 88.5038 100.362 88.459C100.473 88.4142 100.575 88.3476 100.661 88.2631C109.589 79.7546 112.95 70.3045 113.088 69.9061C113.167 69.6787 113.153 69.4291 113.048 69.2122C112.944 68.9954 112.757 68.829 112.53 68.7497Z" fill="white"/>
<path d="M108.323 82.6698C108.265 82.7519 102.473 90.9422 94.8954 96.7775C94.7044 96.9246 94.5796 97.1415 94.5486 97.3805C94.5175 97.6196 94.5827 97.8612 94.7298 98.0521C94.8768 98.2431 95.0938 98.3679 95.3328 98.3989C95.5718 98.43 95.8134 98.3648 96.0044 98.2177C103.809 92.2081 109.57 84.058 109.811 83.7142C109.95 83.517 110.004 83.2728 109.962 83.0353C109.921 82.7979 109.787 82.5867 109.589 82.4482C109.392 82.3097 109.148 82.2553 108.911 82.2968C108.673 82.3384 108.462 82.4725 108.323 82.6698Z" fill="white"/>
<path d="M89.6656 133.251C89.5528 133.21 89.433 133.192 89.3132 133.198C89.1934 133.204 89.076 133.234 88.9676 133.285C88.8593 133.337 88.7623 133.409 88.6821 133.499C88.6019 133.588 88.5402 133.692 88.5005 133.805C88.4608 133.918 88.4439 134.038 88.4507 134.158C88.4576 134.278 88.488 134.395 88.5404 134.503C88.5928 134.611 88.666 134.707 88.7558 134.787C88.8456 134.866 88.9503 134.927 89.0638 134.966C91.8159 135.932 95.449 137.114 97.8287 137.521C98.0352 137.533 98.239 137.469 98.4016 137.341C98.5642 137.213 98.6742 137.03 98.7109 136.827C98.7392 136.711 98.7443 136.59 98.7261 136.472C98.7078 136.354 98.6665 136.241 98.6045 136.139C98.5424 136.037 98.4609 135.949 98.3645 135.878C98.2682 135.808 98.1589 135.757 98.0429 135.729C95.1803 135.031 92.3616 134.197 89.6656 133.251Z" fill="white"/>
<path d="M79.8513 130.979C80.0556 130.979 80.2539 130.91 80.4143 130.783C80.5748 130.657 80.6879 130.48 80.7356 130.282C80.7832 130.083 80.7626 129.874 80.677 129.689C80.5914 129.503 80.4458 129.352 80.2637 129.259C75.2653 126.719 72.6441 124.608 72.5947 124.568C72.5026 124.491 72.3959 124.433 72.2811 124.397C72.1662 124.361 72.0454 124.348 71.9256 124.359C71.8057 124.371 71.6894 124.406 71.5832 124.462C71.4769 124.519 71.383 124.596 71.3068 124.689C71.2307 124.782 71.1738 124.889 71.1394 125.005C71.105 125.12 71.0939 125.241 71.1067 125.361C71.1195 125.48 71.1559 125.596 71.2138 125.702C71.2718 125.807 71.3501 125.9 71.4442 125.975C71.5553 126.066 74.2243 128.23 79.4406 130.88C79.5678 130.945 79.7085 130.978 79.8513 130.979Z" fill="white"/>
<path d="M49.691 142.235C49.8835 142.235 50.0709 142.173 50.226 142.059C50.3823 141.945 54.1017 139.207 58.4127 134.133C58.4917 134.042 58.552 133.937 58.59 133.823C58.6279 133.708 58.6429 133.588 58.6339 133.468C58.6249 133.348 58.5922 133.231 58.5376 133.124C58.4831 133.016 58.4078 132.921 58.3161 132.843C58.2244 132.765 58.1182 132.706 58.0036 132.67C57.8889 132.633 57.7682 132.62 57.6483 132.63C57.5285 132.641 57.4119 132.675 57.3054 132.731C57.1988 132.787 57.1044 132.863 57.0277 132.956C52.8658 137.854 49.1906 140.565 49.1538 140.592C48.9989 140.705 48.8839 140.864 48.8251 141.046C48.7662 141.229 48.7667 141.425 48.8263 141.608C48.8859 141.79 49.0017 141.949 49.157 142.061C49.3123 142.174 49.4993 142.234 49.691 142.234V142.235Z" fill="white"/>
<path d="M44.5728 124.323C44.9261 124.608 45.3613 124.773 45.815 124.793C46.2686 124.814 46.7169 124.689 47.0945 124.437C51.4675 121.578 55.6884 116.778 55.8659 116.575C56.0228 116.394 56.1016 116.157 56.0849 115.918C56.0682 115.678 55.9575 115.455 55.7768 115.297C55.5962 115.139 55.3603 115.059 55.1208 115.074C54.8812 115.089 54.6573 115.199 54.4981 115.378C54.456 115.426 50.2597 120.195 46.1001 122.915C46.0413 122.958 45.9696 122.98 45.8969 122.977C45.8242 122.973 45.7548 122.945 45.7002 122.897C45.6391 122.853 45.5946 122.79 45.574 122.717C45.5534 122.645 45.5578 122.567 45.5865 122.498C45.7365 122.082 45.9113 121.643 46.1054 121.192C46.1983 120.971 46.2002 120.723 46.1107 120.5C46.0212 120.278 45.8475 120.1 45.6274 120.005C45.4073 119.91 45.1586 119.906 44.9356 119.994C44.7125 120.081 44.533 120.253 44.4363 120.473C44.2276 120.956 44.0393 121.43 43.8768 121.881C43.7175 122.309 43.6991 122.777 43.8243 123.216C43.9495 123.655 44.2117 124.043 44.5728 124.323Z" fill="white"/>
<path d="M47.5345 103.694C35.8962 112.385 29.4823 122.332 29.2149 122.752C29.0852 122.955 29.0417 123.202 29.0937 123.437C29.1458 123.673 29.2892 123.878 29.4924 124.007C29.6956 124.137 29.942 124.18 30.1774 124.128C30.4128 124.076 30.6178 123.933 30.7474 123.73C30.8112 123.63 37.2475 113.645 48.6225 105.151C48.8156 105.006 48.9435 104.791 48.978 104.553C49.0125 104.314 48.9509 104.072 48.8066 103.879C48.6623 103.685 48.4473 103.558 48.2087 103.523C47.9701 103.489 47.7276 103.55 47.5345 103.694V103.694Z" fill="white"/>
<path d="M73.7326 65.3333V62.2831H76.7826V59.2328H73.7326V56.1836H70.6827V59.2328H67.6328V62.2831H70.6827V65.3333H73.7326Z" fill="white"/>
<path d="M59.5195 128.188H62.9507V131.047H59.5195V128.188Z" fill="white"/>
<path d="M113.27 78.4961H116.701V81.3554H113.27V78.4961Z" fill="white"/>
<path d="M111.242 87.1152H114.673V89.9745H111.242V87.1152Z" fill="white"/>
<path d="M80.8164 137.316H84.2476V140.176H80.8164V137.316Z" fill="white"/>
<path d="M30.6172 106.385H34.0483V109.244H30.6172V106.385Z" fill="white"/>
</svg>
